<?xml version="1.0" encoding="UTF-8"?>
<svg version="1.1" xmlns="http://www.w3.org/2000/svg" width="750" height="750">
<path d="M0 0 C247.5 0 495 0 750 0 C750 247.5 750 495 750 750 C502.5 750 255 750 0 750 C0 502.5 0 255 0 0 Z " fill="#FEFEFE" transform="translate(0,0)"/>
<path d="M0 0 C0.76248047 -0.00080566 1.52496094 -0.00161133 2.31054688 -0.00244141 C7.80338007 0.05338007 7.80338007 0.05338007 8.9375 1.1875 C10.26299087 1.51295535 11.59860935 1.79751123 12.9375 2.0625 C16.19431357 2.75302693 19.29419103 3.59176906 22.4375 4.6875 C29.23174228 7.02302078 35.92541058 8.33832262 43.08984375 8.84375 C44.9375 9.1875 44.9375 9.1875 46.9375 11.1875 C49.25689207 11.9011591 51.59273449 12.5622292 53.9375 13.1875 C55.94111307 13.84322791 57.94241933 14.50625294 59.9375 15.1875 C59.9375 15.8475 59.9375 16.5075 59.9375 17.1875 C61.236875 17.290625 62.53625 17.39375 63.875 17.5 C67.90894493 17.95655501 71.44715823 18.85689673 75.2578125 20.2265625 C77.43215313 21.00628232 79.60935248 21.74398535 81.8046875 22.4609375 C82.48515137 22.68362305 83.16561523 22.90630859 83.86669922 23.13574219 C85.23510785 23.58295142 86.60391685 24.02893761 87.97314453 24.47363281 C92.82582826 26.07582826 92.82582826 26.07582826 93.9375 27.1875 C95.45999946 27.42391064 96.99089473 27.60685715 98.5234375 27.765625 C99.45414062 27.87519531 100.38484375 27.98476562 101.34375 28.09765625 C103.31349337 28.32314003 105.28494111 28.53422823 107.2578125 28.73046875 C114.43707259 29.6130021 114.43707259 29.6130021 117.1015625 32.671875 C117.9375 35.1875 117.9375 35.1875 117.9375 37.1875 C118.97197266 37.15269531 118.97197266 37.15269531 120.02734375 37.1171875 C129.26083047 36.93986402 136.33393141 38.29690149 144.65625 42.23828125 C147.76273498 43.53087689 150.88854607 44.18014224 154.1875 44.79296875 C155.9375 45.1875 155.9375 45.1875 156.9375 46.1875 C158.28497084 46.41825082 159.64127565 46.59903063 161 46.75 C162.299375 46.894375 163.59875 47.03875 164.9375 47.1875 C164.9375 47.8475 164.9375 48.5075 164.9375 49.1875 C166.030625 49.125625 167.12375 49.06375 168.25 49 C172.82311797 48.99192029 176.80844733 50.10084831 181.171875 51.38671875 C185.05802376 52.51194544 188.98157437 53.34443388 192.9375 54.1875 C192.9375 54.8475 192.9375 55.5075 192.9375 56.1875 C194.071875 56.27 195.20625 56.3525 196.375 56.4375 C200.9375 57.1875 200.9375 57.1875 209.9375 61.1875 C209.9375 90.5575 209.9375 119.9275 209.9375 150.1875 C198.7175 150.5175 187.4975 150.8475 175.9375 151.1875 C169.08292032 154.82689107 169.08292032 154.82689107 163.73535156 159.56005859 C159.87978767 163.05017116 155.38657988 165.75607647 151.0625 168.625 C149.15471403 169.91831007 147.2484411 171.21385509 145.34375 172.51171875 C144.42464844 173.1361084 143.50554687 173.76049805 142.55859375 174.40380859 C138.88529237 176.90354219 135.22243507 179.41825235 131.5625 181.9375 C130.93456543 182.3691748 130.30663086 182.80084961 129.65966797 183.24560547 C126.28115412 185.56937231 122.90800709 187.90066127 119.5390625 190.23828125 C118.81122559 190.74198242 118.08338867 191.24568359 117.33349609 191.76464844 C115.94169803 192.7279817 114.5513088 193.69335485 113.16259766 194.66113281 C110.14167612 196.74972876 107.23301596 198.53974202 103.9375 200.1875 C103.9375 178.0775 103.9375 155.9675 103.9375 133.1875 C79.5175 133.1875 55.0975 133.1875 29.9375 133.1875 C29.9375 159.9175 29.9375 186.6475 29.9375 214.1875 C24.9375 214.1875 24.9375 214.1875 21.9375 212.1875 C21.75 209.5625 21.75 209.5625 21.9375 207.1875 C20.9475 206.8575 19.9575 206.5275 18.9375 206.1875 C18.9375 205.5275 18.9375 204.8675 18.9375 204.1875 C17.9475 203.8575 16.9575 203.5275 15.9375 203.1875 C15.9375 202.5275 15.9375 201.8675 15.9375 201.1875 C15.2775 201.1875 14.6175 201.1875 13.9375 201.1875 C13.5353125 200.2284375 13.5353125 200.2284375 13.125 199.25 C12.05082248 196.85618314 12.05082248 196.85618314 8.9375 196.1875 C7.5 194 7.5 194 5.9375 191.1875 C3.79307644 187.71205491 1.6353081 184.8021517 -1.3125 182 C-4.0625 179.1875 -4.0625 179.1875 -4.0625 176.1875 C-7.0325 175.1975 -7.0325 175.1975 -10.0625 174.1875 C-10.0625 173.5275 -10.0625 172.8675 -10.0625 172.1875 C-10.7225 172.1875 -11.3825 172.1875 -12.0625 172.1875 C-12.0625 171.5275 -12.0625 170.8675 -12.0625 170.1875 C-13.0525 169.8575 -14.0425 169.5275 -15.0625 169.1875 C-15.0625 168.5275 -15.0625 167.8675 -15.0625 167.1875 C-15.7225 167.1875 -16.3825 167.1875 -17.0625 167.1875 C-17.0625 166.5275 -17.0625 165.8675 -17.0625 165.1875 C-18.0525 165.1875 -19.0425 165.1875 -20.0625 165.1875 C-21.11839069 163.55566893 -22.1061126 161.87957001 -23.0625 160.1875 C-23.93996107 159.10977755 -24.83647957 158.04733187 -25.75 157 C-28.0625 154.1875 -28.0625 154.1875 -28.0625 152.1875 C-29.0525 151.8575 -30.0425 151.5275 -31.0625 151.1875 C-31.0625 150.5275 -31.0625 149.8675 -31.0625 149.1875 C-31.7225 149.1875 -32.3825 149.1875 -33.0625 149.1875 C-33.0625 148.5275 -33.0625 147.8675 -33.0625 147.1875 C-34.0525 146.8575 -35.0425 146.5275 -36.0625 146.1875 C-37.10894066 144.54959288 -38.1023183 142.87741979 -39.0625 141.1875 C-40.35736821 139.49077614 -41.69610658 137.8271721 -43.0625 136.1875 C-43.76246094 135.26130859 -43.76246094 135.26130859 -44.4765625 134.31640625 C-47.31151882 130.55686379 -47.31151882 130.55686379 -51.375 128.5 C-54.651348 129.33813554 -57.55389452 130.62873004 -60.5859375 132.1171875 C-63.68111991 133.45485308 -66.80837086 134.30762817 -70.0625 135.1875 C-78.02834345 137.34680608 -85.62846363 139.57484733 -93.0625 143.1875 C-97.12179312 145.11566423 -100.73128445 145.54967116 -105.171875 145.84375 C-106.10773438 146.01390625 -106.10773438 146.01390625 -107.0625 146.1875 C-108.53566261 149.13382522 -108.1961477 152.10814913 -108.18275452 155.33743286 C-108.18360894 156.08234824 -108.18446337 156.82726362 -108.18534368 157.59475219 C-108.18699757 160.10371954 -108.1814786 162.61262079 -108.17602539 165.12158203 C-108.17574347 166.91495767 -108.17590134 168.70833342 -108.1764679 170.50170898 C-108.17675569 175.38161025 -108.17086182 180.26148712 -108.16389394 185.14138269 C-108.15765746 190.2369846 -108.15705637 195.33258701 -108.15586853 200.42819214 C-108.15275609 210.08252364 -108.14454386 219.73684386 -108.13451904 229.39117038 C-108.12335522 240.38012345 -108.11784677 251.36907705 -108.11282361 262.35803437 C-108.10236118 284.96786395 -108.08401677 307.57767806 -108.0625 330.1875 C-83.3125 330.1875 -58.5625 330.1875 -33.0625 330.1875 C-32.5675 287.1225 -32.5675 287.1225 -32.0625 243.1875 C-28.0625 243.1875 -28.0625 243.1875 -26.6328125 244.41015625 C-25.91738281 245.32087891 -25.91738281 245.32087891 -25.1875 246.25 C-21.59639759 250.59671398 -17.83951288 254.74845362 -14 258.875 C-13.41041504 259.51638916 -12.82083008 260.15777832 -12.21337891 260.81860352 C-8.69760638 264.59994892 -5.06865283 267.93359421 -1.0625 271.1875 C1.9375 274.6875 1.9375 274.6875 1.9375 277.1875 C2.9275 277.5175 3.9175 277.8475 4.9375 278.1875 C5.96361949 279.83821396 6.96058143 281.50720006 7.9375 283.1875 C8.618125 283.8475 9.29875 284.5075 10 285.1875 C11.9375 287.1875 11.9375 287.1875 12.8125 289.5625 C14.37443602 293.20701737 16.86100632 295.71377989 19.9375 298.1875 C20.9275 298.5175 21.9175 298.8475 22.9375 299.1875 C23.98099839 300.82728318 24.96932008 302.50214976 25.9375 304.1875 C27.47352055 306.25568515 29.04575409 308.29108856 30.6328125 310.3203125 C31.9375 312.1875 31.9375 312.1875 32.9375 315.1875 C33.9275 315.1875 34.9175 315.1875 35.9375 315.1875 C36.205625 315.826875 36.47375 316.46625 36.75 317.125 C37.82417752 319.51881686 37.82417752 319.51881686 40.9375 320.1875 C42.25390625 322.40234375 42.25390625 322.40234375 43.5 325.125 C45.26187611 328.96827076 45.26187611 328.96827076 47.9375 332.1875 C51.4375 332.52083333 51.4375 332.52083333 54.9375 332.1875 C55.5975 331.5275 56.2575 330.8675 56.9375 330.1875 C61.80104698 327.9109461 66.94246093 327.04746322 72.171875 325.96875 C73.08453125 325.7109375 73.9971875 325.453125 74.9375 325.1875 C75.2675 324.5275 75.5975 323.8675 75.9375 323.1875 C77.92804876 322.49312253 79.93005385 321.83139782 81.9375 321.1875 C82.845 320.671875 83.7525 320.15625 84.6875 319.625 C87.77419369 318.25973164 89.64011082 317.92937436 92.9375 317.6875 C97.21088394 317.37166921 100.26617842 316.54091127 103.9375 314.1875 C105.30161955 311.4592609 105.01762724 309.35733381 104.96826172 306.30419922 C104.94492264 304.45119705 104.94492264 304.45119705 104.92111206 302.5607605 C104.9068046 301.56702738 104.9068046 301.56702738 104.8922081 300.55321884 C104.84058398 296.3007653 104.84642488 292.04791134 104.84084892 287.79519463 C104.83264703 284.06178349 104.80502134 280.33046255 104.73535156 276.59765625 C104.66901081 272.98286227 104.65693957 269.37138998 104.68060684 265.75610733 C104.67999924 264.38377321 104.6600798 263.0112972 104.61983871 261.63955307 C104.32301375 250.97177377 104.32301375 250.97177377 108.29498291 246.58209229 C112.59213145 243.36827062 116.91596177 241.0604607 121.9375 239.1875 C122.36417969 239.57679688 122.79085938 239.96609375 123.23046875 240.3671875 C128.35559699 244.95338473 133.72723731 249.16215592 139.1953125 253.328125 C142.61798023 255.936047 146.01623181 258.57413301 149.40527344 261.22558594 C150.93977538 262.41864971 152.48228998 263.60147163 154.03222656 264.77441406 C157.82266656 267.65779405 161.38563217 270.55445949 164.7421875 273.9375 C179.60825515 287.80033609 186.04847077 283.44096784 209.9375 284.1875 C209.9375 318.8375 209.9375 353.4875 209.9375 389.1875 C207.6275 389.5175 205.3175 389.8475 202.9375 390.1875 C202.6075 390.5175 202.2775 390.8475 201.9375 391.1875 C199.94094494 391.37467704 197.93959265 391.51145539 195.9375 391.625 C186.1812926 391.92646526 186.1812926 391.92646526 177.9375 396.1875 C175.89679225 396.918159 173.82922299 397.57497861 171.75 398.1875 C170.57179688 398.538125 169.39359375 398.88875 168.1796875 399.25 C165.91411856 399.90510427 163.64562252 400.55013227 161.375 401.1875 C159.36158822 401.77321979 157.35640849 402.39243456 155.37890625 403.08984375 C146.7509241 406.12625181 137.16342718 409.1875 127.9375 409.1875 C127.9375 409.8475 127.9375 410.5075 127.9375 411.1875 C127.380625 411.29707031 126.82375 411.40664063 126.25 411.51953125 C120.21752317 412.77290059 114.67044185 414.58983117 109.01171875 417.01171875 C104.38916897 418.91076225 100.22776522 419.61651473 95.234375 419.87890625 C92.75493712 420.21202801 91.13701424 421.03733735 88.9375 422.1875 C86.1875 422.3125 86.1875 422.3125 83.9375 422.1875 C83.6075 423.1775 83.2775 424.1675 82.9375 425.1875 C78.24539326 426.94704003 73.74128786 427.50588726 68.7578125 427.84375 C68.15710938 427.9571875 67.55640625 428.070625 66.9375 428.1875 C66.6075 428.8475 66.2775 429.5075 65.9375 430.1875 C62.68167057 431.50533572 59.73644322 432.21476194 56.25 432.6875 C52.80787035 432.96747994 52.80787035 432.96747994 49.9375 435.1875 C48.0715332 435.84179688 48.0715332 435.84179688 45.98828125 436.40625 C45.22193359 436.61636719 44.45558594 436.82648438 43.66601562 437.04296875 C42.86873047 437.25566406 42.07144531 437.46835937 41.25 437.6875 C40.08307617 438.00654297 40.08307617 438.00654297 38.89257812 438.33203125 C35.07921335 439.36885937 31.25984664 440.35570279 27.41796875 441.28125 C24.13325714 441.82303832 24.13325714 441.82303832 22.9375 443.1875 C20.60416667 443.52083333 18.27083333 443.85416667 15.9375 444.1875 C15.6075 444.5175 15.2775 444.8475 14.9375 445.1875 C12.36544627 445.7590675 9.77966087 446.21619802 7.1875 446.6875 C4.97904394 446.96699757 4.97904394 446.96699757 3.9375 448.1875 C-2.26049214 448.62244682 -6.36566864 447.62899915 -12.0625 445.1875 C-12.0625 444.5275 -12.0625 443.8675 -12.0625 443.1875 C-12.81273437 443.23390625 -13.56296875 443.2803125 -14.3359375 443.328125 C-21.84167484 443.59281095 -27.33593192 442.52102047 -34.0625 439.1875 C-34.0625 438.5275 -34.0625 437.8675 -34.0625 437.1875 C-35.031875 437.208125 -36.00125 437.22875 -37 437.25 C-40.0625 437.1875 -40.0625 437.1875 -41.0625 436.1875 C-42.36469536 435.8345131 -43.68031955 435.53063503 -45 435.25 C-45.81339844 435.0746875 -46.62679687 434.899375 -47.46484375 434.71875 C-49.16258613 434.37154254 -50.86311393 434.03761908 -52.56640625 433.71875 C-57.54188584 432.78438764 -62.18000964 431.53796283 -66.94921875 429.84375 C-69.00962432 429.2039198 -70.92300403 428.86901583 -73.0625 428.625 C-74.0525 428.480625 -75.0425 428.33625 -76.0625 428.1875 C-76.3925 427.5275 -76.7225 426.8675 -77.0625 426.1875 C-78.84562114 425.64208042 -78.84562114 425.64208042 -81 425.3125 C-84.42083404 424.62618847 -87.42610425 423.70049544 -90.625 422.3125 C-98.99053572 418.82686012 -107.9842508 417.10365582 -116.80078125 415.1171875 C-117.57542725 414.94058594 -118.35007324 414.76398438 -119.14819336 414.58203125 C-120.64869607 414.24150979 -122.15079202 413.90791805 -123.65454102 413.58203125 C-128.84016792 412.40983208 -128.84016792 412.40983208 -131.0625 410.1875 C-133.21492651 409.70261271 -135.38615295 409.30022451 -137.5625 408.9375 C-143.86939986 407.80060037 -149.86665709 406.1096447 -155.9375 404.0625 C-156.72833984 403.79663086 -157.51917969 403.53076172 -158.33398438 403.25683594 C-163.91478559 401.33521441 -163.91478559 401.33521441 -165.0625 400.1875 C-167.16847314 399.71195768 -169.27540126 399.24028506 -171.38671875 398.7890625 C-178.04226643 397.29277879 -184.62607809 395.44894554 -191.0625 393.1875 C-191.0625 392.5275 -191.0625 391.8675 -191.0625 391.1875 C-195.0225 391.1875 -198.9825 391.1875 -203.0625 391.1875 C-203.0625 390.5275 -203.0625 389.8675 -203.0625 389.1875 C-205.3725 389.1875 -207.6825 389.1875 -210.0625 389.1875 C-210.0625 280.9475 -210.0625 172.7075 -210.0625 61.1875 C-203.65797322 58.62568929 -197.58853666 56.32786343 -191 54.5 C-186.15284726 53.50879572 -186.15284726 53.50879572 -182.0625 51.1875 C-180.515625 51.001875 -180.515625 51.001875 -178.9375 50.8125 C-174.91892776 50.16434319 -170.06324947 49.18824947 -167.0625 46.1875 C-165.54836842 45.86283241 -164.02561431 45.57802676 -162.5 45.3125 C-159.18527754 44.68157271 -156.13340732 43.93833599 -153 42.6875 C-147.91015794 40.65768322 -142.67001405 39.68979732 -137.3046875 38.65625 C-136.39976562 38.4809375 -135.49484375 38.305625 -134.5625 38.125 C-133.7271875 37.96902344 -132.891875 37.81304687 -132.03125 37.65234375 C-130.07150429 37.37173641 -130.07150429 37.37173641 -129.0625 36.1875 C-127.39632885 36.14686168 -125.72861905 36.144779 -124.0625 36.1875 C-123.7325 35.1975 -123.4025 34.2075 -123.0625 33.1875 C-117.81787438 30.39195924 -111.87225875 29.7770214 -106.03125 29.3984375 C-104.06148644 29.39573726 -104.06148644 29.39573726 -103.0625 28.1875 C-101.39632885 28.14686168 -99.72861905 28.144779 -98.0625 28.1875 C-98.0625 27.1975 -98.0625 26.2075 -98.0625 25.1875 C-97.19238281 25.11402344 -97.19238281 25.11402344 -96.3046875 25.0390625 C-91.60139566 24.58891246 -87.53538403 23.78495858 -83.0625 22.1875 C-82.0725 22.1875 -81.0825 22.1875 -80.0625 22.1875 C-80.0625 21.5275 -80.0625 20.8675 -80.0625 20.1875 C-79.44503906 20.15011719 -78.82757813 20.11273438 -78.19140625 20.07421875 C-72.87995147 19.66191404 -68.28871551 18.7649742 -63.2890625 16.9453125 C-60.27637488 15.91994162 -57.21966675 15.30267128 -54.109375 14.6484375 C-51.35134084 14.02735347 -48.73247699 13.11381855 -46.0625 12.1875 C-42.73477612 11.16860415 -39.39917906 10.17663411 -36.0625 9.1875 C-36.0625 8.5275 -36.0625 7.8675 -36.0625 7.1875 C-35.41023437 7.13851562 -34.75796875 7.08953125 -34.0859375 7.0390625 C-29.16942147 6.61847558 -24.63813545 6.18200776 -20.0625 4.1875 C-19.7325 3.5275 -19.4025 2.8675 -19.0625 2.1875 C-13.00740117 -0.08316206 -6.3786265 0.00668339 0 0 Z " fill="#D44A2A" transform="translate(375.0625,125.8125)"/>
<path d="M0 0 C5.30615251 0.75802179 10.59074628 1.54919873 15.875 2.4375 C16.64585937 2.55931641 17.41671875 2.68113281 18.2109375 2.80664062 C20.15336459 3.13664805 22.07931356 3.56080584 24 4 C24.33 4.66 24.66 5.32 25 6 C32.29632673 9.3563103 40.15280146 10.55930339 48 12 C48 12.66 48 13.32 48 14 C51.63 14.66 55.26 15.32 59 16 C59 16.33 59 16.66 59 17 C61.64 17.66 64.28 18.32 67 19 C67 19.66 67 20.32 67 21 C68.24716797 20.96519531 68.24716797 20.96519531 69.51953125 20.9296875 C70.60621094 20.91164062 71.69289063 20.89359375 72.8125 20.875 C73.89144531 20.85179687 74.97039062 20.82859375 76.08203125 20.8046875 C79 21 79 21 82 23 C83.44372958 23.54072269 84.90413666 24.03815895 86.375 24.5 C88.84574438 25.28777357 91.18555802 26.0814645 93.5625 27.125 C95.84064149 27.94279438 97.67333237 28.24527257 100.0625 28.5 C103.42857034 28.9274375 105.17805705 29.32773751 108 31 C109.485 31.495 109.485 31.495 111 32 C111 32.66 111 33.32 111 34 C111.9075 33.938125 112.815 33.87625 113.75 33.8125 C119.33429576 33.77795796 124.65840632 35.52645691 130 37 C130 37.33 130 37.66 130 38 C130.59538574 38.11069824 131.19077148 38.22139648 131.80419922 38.33544922 C134.49604676 38.84059772 137.18547354 39.35764225 139.875 39.875 C140.81214844 40.04902344 141.74929688 40.22304687 142.71484375 40.40234375 C143.61074219 40.57636719 144.50664063 40.75039062 145.4296875 40.9296875 C146.67081299 41.16534424 146.67081299 41.16534424 147.93701172 41.40576172 C150 42 150 42 152 44 C155.88938126 46.59292084 158.92655803 46.41309737 163.50390625 46.65625 C166 47 166 47 168 49 C168.35922241 51.57839966 168.35922241 51.57839966 168.50927734 54.88330078 C168.56787933 56.11863556 168.62648132 57.35397034 168.68685913 58.6267395 C168.73858973 59.9828543 168.78822996 61.33905021 168.8359375 62.6953125 C168.87220182 63.72016062 168.87220182 63.72016062 168.90919876 64.76571274 C169.03269687 68.38613938 169.13988408 72.00671477 169.23730469 75.62792969 C169.32117277 78.6175467 169.43913838 81.60276441 169.58789062 84.58984375 C169.7676681 88.20336315 169.88695234 91.81427467 169.96422195 95.43139267 C170.00337572 96.80433729 170.06320335 98.17686377 170.14469528 99.54794693 C170.39572798 103.9452936 170.38195126 107.79856154 169 112 C165.40958191 115.56188555 161.48370225 117.72987035 157 120 C155.61371735 120.90892624 154.23882458 121.83626874 152.890625 122.80078125 C152.28992188 123.21457031 151.68921875 123.62835938 151.0703125 124.0546875 C150.46960938 124.46976562 149.86890625 124.88484375 149.25 125.3125 C147.88022478 126.25653428 146.51043262 127.20054398 145.140625 128.14453125 C144.45548828 128.61713379 143.77035156 129.08973633 143.06445312 129.57666016 C139.05537706 132.34072277 135.04169763 135.09810167 131.02734375 137.85449219 C127.538828 140.25069654 124.05520422 142.6536302 120.578125 145.06640625 C119.85367188 145.56785156 119.12921875 146.06929687 118.3828125 146.5859375 C116.99594112 147.54607922 115.6104457 148.50821255 114.2265625 149.47265625 C111.20513831 151.56154211 108.2960347 153.35198265 105 155 C105 132.89 105 110.78 105 88 C80.58 88 56.16 88 31 88 C31 114.73 31 141.46 31 169 C26 169 26 169 23 167 C22.8125 164.375 22.8125 164.375 23 162 C22.01 161.67 21.02 161.34 20 161 C20 160.34 20 159.68 20 159 C19.01 158.67 18.02 158.34 17 158 C17 157.34 17 156.68 17 156 C16.34 156 15.68 156 15 156 C14.731875 155.360625 14.46375 154.72125 14.1875 154.0625 C13.11332248 151.66868314 13.11332248 151.66868314 10 151 C8.5625 148.8125 8.5625 148.8125 7 146 C4.26247007 141.71120311 1.30361268 137.8542148 -2 134 C-1.34 134 -0.68 134 0 134 C0 89.78 0 45.56 0 0 Z " fill="#DD7054" transform="translate(374,171)"/>
<path d="M0 0 C4.19660427 1.75817835 7.45093427 4.64699155 10.9375 7.5 C12.29220248 8.59599991 13.6476838 9.69103776 15.00390625 10.78515625 C15.67953613 11.33059082 16.35516602 11.87602539 17.05126953 12.43798828 C21.36535375 15.89595756 25.76534089 19.24239208 30.16064453 22.59619141 C32.30511657 24.23286704 34.44752309 25.87222814 36.58984375 27.51171875 C40.72531334 30.67611503 44.8621998 33.83865202 49 37 C48.67 37.66 48.34 38.32 48 39 C47.87802512 41.40973615 47.81440406 43.79254882 47.79467773 46.20361328 C47.78477814 46.9451767 47.77487854 47.68674011 47.76467896 48.45077515 C47.73303637 50.90725488 47.70829569 53.36375397 47.68359375 55.8203125 C47.6630266 57.521398 47.64203019 59.22247836 47.62062073 60.92355347 C47.56537536 65.40500736 47.51597697 69.88650756 47.46777344 74.36804199 C47.4175764 78.93941377 47.36188096 83.51071813 47.30664062 88.08203125 C47.19902891 97.05462994 47.09759064 106.02728711 47 115 C40.46089381 117.82820846 34.65762645 119.80819313 27.5625 120.4375 C23.05141019 120.86899555 16.33972933 121.66027067 13 125 C10.32941149 125.14115161 7.67567762 125.04247107 5 125 C4.67 125.99 4.34 126.98 4 128 C2.94039062 128.19335938 1.88078125 128.38671875 0.7890625 128.5859375 C-0.59903553 128.84855064 -1.98705224 129.11159386 -3.375 129.375 C-4.07367188 129.50132812 -4.77234375 129.62765625 -5.4921875 129.7578125 C-9.67259465 130.50143321 -9.67259465 130.50143321 -13 133 C-15.33333333 133.33333333 -17.66666667 133.66666667 -20 134 C-23.72477556 135.07876014 -27.36325893 136.41204447 -31.01171875 137.72265625 C-34.63586729 138.98593088 -38.25133491 140.08122301 -41.984375 140.97265625 C-42.69585693 141.14289307 -43.40733887 141.31312988 -44.14038086 141.48852539 C-45.5635593 141.82364496 -46.98883852 142.14999221 -48.41625977 142.46655273 C-52.27772854 143.37151851 -55.02236501 144.36486293 -58 147 C-61.85299384 149.60337421 -65.52271375 150.79457678 -70 152 C-70.33 152.33 -70.66 152.66 -71 153 C-71.969375 153.103125 -72.93875 153.20625 -73.9375 153.3125 C-77.21267979 153.72189747 -79.90614412 154.70418892 -82.9375 156 C-86.02618007 157.30441994 -88.65780358 158.22992352 -92 158.5 C-95.26896201 158.76859207 -97.79915336 159.64199822 -100.8125 160.9375 C-107.32344239 163.7049021 -113.93109051 165 -121 165 C-121.00054477 164.34069929 -121.00108953 163.68139858 -121.00165081 163.00211906 C-121.016625 146.95202158 -121.0590973 130.90226724 -121.13209057 114.85233879 C-121.16672829 107.0906549 -121.19209447 99.32914838 -121.19555664 91.56738281 C-121.19859826 84.80136993 -121.21911491 78.03567303 -121.26052457 71.26978219 C-121.28183885 67.68794456 -121.2944636 64.10655597 -121.28615379 60.52465439 C-121.27719937 56.523644 -121.30726309 52.523831 -121.34057617 48.52294922 C-121.33195053 47.3382756 -121.32332489 46.15360199 -121.31443787 44.93302917 C-121.3306848 38.06433824 -121.3306848 38.06433824 -124.54121399 32.21731567 C-125.35261337 31.4856015 -126.16401276 30.75388733 -127 30 C-126.67 29.34 -126.34 28.68 -126 28 C-122.82537057 30.40242227 -120.14248259 32.61713276 -118 36 C-118 36.66 -118 37.32 -118 38 C-117.01 38.33 -116.02 38.66 -115 39 C-113.97388051 40.65071396 -112.97691857 42.31970006 -112 44 C-111.319375 44.66 -110.63875 45.32 -109.9375 46 C-108 48 -108 48 -107.125 50.375 C-105.56306398 54.01951737 -103.07649368 56.52627989 -100 59 C-98.515 59.495 -98.515 59.495 -97 60 C-95.95650161 61.63978318 -94.96817992 63.31464976 -94 65 C-92.46397945 67.06818515 -90.89174591 69.10358856 -89.3046875 71.1328125 C-88 73 -88 73 -87 76 C-86.01 76 -85.02 76 -84 76 C-83.731875 76.639375 -83.46375 77.27875 -83.1875 77.9375 C-82.11332248 80.33131686 -82.11332248 80.33131686 -79 81 C-77.68359375 83.21484375 -77.68359375 83.21484375 -76.4375 85.9375 C-74.67562389 89.78077076 -74.67562389 89.78077076 -72 93 C-68.5 93.33333333 -68.5 93.33333333 -65 93 C-64.34 92.34 -63.68 91.68 -63 91 C-58.13645302 88.7234461 -52.99503907 87.85996322 -47.765625 86.78125 C-46.85296875 86.5234375 -45.9403125 86.265625 -45 86 C-44.67 85.34 -44.34 84.68 -44 84 C-42.00945124 83.30562253 -40.00744615 82.64389782 -38 82 C-37.0925 81.484375 -36.185 80.96875 -35.25 80.4375 C-32.16330631 79.07223164 -30.29738918 78.74187436 -27 78.5 C-22.72661606 78.18416921 -19.67132158 77.35341127 -16 75 C-14.63588045 72.2717609 -14.91987276 70.16983381 -14.96923828 67.11669922 C-14.98479767 65.88136444 -15.00035706 64.64602966 -15.01638794 63.3732605 C-15.02592625 62.71077175 -15.03546455 62.048283 -15.0452919 61.36571884 C-15.09691602 57.1132653 -15.09107512 52.86041134 -15.09665108 48.60769463 C-15.10485297 44.87428349 -15.13247866 41.14296255 -15.20214844 37.41015625 C-15.26848919 33.79536227 -15.28056043 30.18388998 -15.25689316 26.56860733 C-15.25750076 25.19627321 -15.2774202 23.8237972 -15.31766129 22.45205307 C-15.61588239 11.73409688 -15.61588239 11.73409688 -11.57220459 7.39459229 C-8.79562989 5.35632533 -6.02681281 3.63689831 -3 2 C-2.01 1.34 -1.02 0.68 0 0 Z " fill="#DE7054" transform="translate(495,365)"/>
<path d="M0 0 C0 25.08 0 50.16 0 76 C-6.43392749 71.9056825 -12.53042888 68.00528559 -18.5 63.375 C-25.29328826 58.18863683 -32.26435967 53.31320599 -39.35351562 48.54052734 C-44.35020151 45.16894588 -49.21305551 41.66357775 -54 38 C-49.23371591 32.62480737 -43.31763557 28.96531897 -37.375 25 C-36.25780709 24.2484967 -35.14103042 23.49637426 -34.0246582 22.74365234 C-31.76968002 21.22373982 -29.51313569 19.70619967 -27.25537109 18.19042969 C-22.55048486 15.02467003 -17.86701731 11.82809206 -13.1875 8.625 C-12.4126123 8.09648437 -11.63772461 7.56796875 -10.83935547 7.0234375 C-8.03768443 5.10819577 -5.25841435 3.1953563 -2.55078125 1.1484375 C-1 0 -1 0 0 0 Z " fill="#D44B2B" transform="translate(585,304)"/>
<path d="M0 0 C2.0625 0.4375 2.0625 0.4375 4 1 C3.34 1 2.68 1 2 1 C2 1.66 2 2.32 2 3 C-0.31 3 -2.62 3 -5 3 C-5 3.99 -5 4.98 -5 6 C-6.65 6 -8.3 6 -10 6 C-10 65.07 -10 124.14 -10 185 C13.76 185 37.52 185 62 185 C62 155.3 62 125.6 62 95 C63.98 95.33 65.96 95.66 68 96 C68 96.66 68 97.32 68 98 C69.485 98.495 69.485 98.495 71 99 C71 99.66 71 100.32 71 101 C71.66 101 72.32 101 73 101 C73 101.66 73 102.32 73 103 C74.485 103.495 74.485 103.495 76 104 C76 104.66 76 105.32 76 106 C77.485 106.495 77.485 106.495 79 107 C82.34073619 109.75119451 83.52153935 111.69385411 84 116 C84.66 116 85.32 116 86 116 C85.505 117.485 85.505 117.485 85 119 C82.82529395 116.71584679 80.66166755 114.42149089 78.5 112.125 C77.87996094 111.47402344 77.25992188 110.82304687 76.62109375 110.15234375 C76.03457031 109.52714844 75.44804687 108.90195312 74.84375 108.2578125 C74.02680664 107.39373779 74.02680664 107.39373779 73.19335938 106.51220703 C72 105 72 105 72 103 C70.515 102.505 70.515 102.505 69 102 C69 101.34 69 100.68 69 100 C67.68 100 66.36 100 65 100 C65.00222061 101.08772202 65.00444122 102.17544403 65.00672913 103.29612732 C65.02695978 113.52353511 65.04197177 123.75093886 65.05181217 133.97836208 C65.05704119 139.23696664 65.06413918 144.4955551 65.07543945 149.75415039 C65.08626766 154.82453127 65.09227669 159.89489662 65.09487724 164.96528816 C65.09673161 166.90426948 65.10035245 168.84324991 65.10573006 170.78222466 C65.1129396 173.4882176 65.11399098 176.19414556 65.11352539 178.90014648 C65.11712067 179.71006546 65.12071594 180.51998444 65.12442017 181.35444641 C65.11405216 186.88594784 65.11405216 186.88594784 64 188 C61.66285675 188.10023555 59.35525675 188.13619203 57.01757812 188.12939453 C56.2875206 188.13114685 55.55746307 188.13289917 54.80528259 188.13470459 C52.38058122 188.13912299 49.95595218 188.13618517 47.53125 188.1328125 C45.85355617 188.13348554 44.17586244 188.13445557 42.49816895 188.13571167 C38.97744826 188.13718863 35.4567529 188.13503416 31.93603516 188.13037109 C27.41289504 188.1246738 22.88981426 188.12795282 18.36667633 188.13394356 C14.90097605 188.13754923 11.43528993 188.13641056 7.96958923 188.13381577 C6.30134575 188.13314651 4.63310101 188.13397486 2.96485901 188.13629532 C0.63734506 188.13882195 -1.69007148 188.13498113 -4.01757812 188.12939453 C-4.71371719 188.13141876 -5.40985626 188.13344299 -6.12709045 188.13552856 C-10.88573726 188.11426274 -10.88573726 188.11426274 -12 187 C-12.10205554 184.65396268 -12.13888078 182.33721206 -12.13371277 179.99050903 C-12.1371111 178.87759265 -12.1371111 178.87759265 -12.14057809 177.7421931 C-12.14694666 175.23713017 -12.14608691 172.73212095 -12.14526367 170.22705078 C-12.14825341 168.43868947 -12.1516555 166.6503288 -12.15544128 164.86196899 C-12.16430491 159.99007789 -12.1666204 155.11820433 -12.16725707 150.24630594 C-12.1682043 146.18551028 -12.17188048 142.12471875 -12.17542917 138.06392467 C-12.18358289 128.48613647 -12.18601258 118.90835768 -12.18530273 109.33056641 C-12.18470186 99.437078 -12.19525351 89.5436441 -12.2110464 79.65016949 C-12.224105 71.16864137 -12.22948733 62.6871311 -12.22884732 54.20559299 C-12.22859182 49.13447016 -12.23147176 44.06339572 -12.24202538 38.99228287 C-12.25167803 34.22352215 -12.25180509 29.45485636 -12.24450874 24.68609238 C-12.24345932 22.9328879 -12.24584683 21.1796776 -12.2518692 19.42648315 C-12.25954197 17.03869509 -12.25497587 14.65123874 -12.24723816 12.26345825 C-12.25238172 11.56472631 -12.25752529 10.86599436 -12.26282471 10.14608872 C-12.23679381 6.52721596 -12.07014322 5.10521483 -10 2 C-7.87109375 1.5234375 -7.87109375 1.5234375 -5.4375 1.375 C-2.41923553 1.39637058 -2.41923553 1.39637058 0 0 Z " fill="#F1C3B6" transform="translate(278,269)"/>
<path d="M0 0 C2.0625 0.4375 2.0625 0.4375 4 1 C0.37825721 4.62174279 -5.03284894 5.87956218 -10.0625 6.1875 C-11.0215625 6.0946875 -11.0215625 6.0946875 -12 6 C-12 6.66 -12 7.32 -12 8 C-12.71027344 8.13277344 -13.42054688 8.26554688 -14.15234375 8.40234375 C-15.53099609 8.66724609 -15.53099609 8.66724609 -16.9375 8.9375 C-18.31228516 9.19853516 -18.31228516 9.19853516 -19.71484375 9.46484375 C-21.95289844 9.77714988 -21.95289844 9.77714988 -23 11 C-24.36799796 11.32291797 -25.74493176 11.60834275 -27.125 11.875 C-30.17690284 12.5200394 -32.6004158 13.25732106 -35.5 14.5 C-38.32180239 15.70934388 -40.48157299 16.36652606 -43.4375 16.9375 C-46.67894485 17.580295 -49.1802308 18.51432015 -52.0625 20.125 C-56.19927686 22.37234357 -59.34667009 22.33238071 -64 22 C-64 22.66 -64 23.32 -64 24 C-67.3 24.33 -70.6 24.66 -74 25 C-74 25.66 -74 26.32 -74 27 C-75.7015625 27.4640625 -75.7015625 27.4640625 -77.4375 27.9375 C-80.78775099 28.62924531 -80.78775099 28.62924531 -82 30 C-84.31817089 30.32097751 -86.63779357 30.51220956 -88.96875 30.71875 C-90.99180593 30.79065837 -90.99180593 30.79065837 -92 32 C-94.67058851 32.14115161 -97.32432238 32.04247107 -100 32 C-100 32.99 -100 33.98 -100 35 C-100.60328125 35.04898438 -101.2065625 35.09796875 -101.828125 35.1484375 C-102.62734375 35.22320312 -103.4265625 35.29796875 -104.25 35.375 C-105.43335938 35.47941406 -105.43335938 35.47941406 -106.640625 35.5859375 C-108.98493829 35.86827578 -108.98493829 35.86827578 -110.796875 36.9765625 C-113 38 -113 38 -121 39 C-121 145.92 -121 252.84 -121 363 C-117.04 363.33 -113.08 363.66 -109 364 C-108.505 365.485 -108.505 365.485 -108 367 C-106.35 367 -104.7 367 -103 367 C-103 367.33 -103 367.66 -103 368 C-106.96 368 -110.92 368 -115 368 C-115 367.34 -115 366.68 -115 366 C-117.31 366 -119.62 366 -122 366 C-122 257.76 -122 149.52 -122 38 C-115.59547322 35.43818929 -109.52603666 33.14036343 -102.9375 31.3125 C-98.09034726 30.32129572 -98.09034726 30.32129572 -94 28 C-92.453125 27.814375 -92.453125 27.814375 -90.875 27.625 C-86.85642776 26.97684319 -82.00074947 26.00074947 -79 23 C-77.48586842 22.67533241 -75.96311431 22.39052676 -74.4375 22.125 C-71.12277754 21.49407271 -68.07090732 20.75083599 -64.9375 19.5 C-59.84765794 17.47018322 -54.60751405 16.50229732 -49.2421875 15.46875 C-48.33726562 15.2934375 -47.43234375 15.118125 -46.5 14.9375 C-45.24703125 14.70353516 -45.24703125 14.70353516 -43.96875 14.46484375 C-42.00900429 14.18423641 -42.00900429 14.18423641 -41 13 C-39.33382885 12.95936168 -37.66611905 12.957279 -36 13 C-35.67 12.01 -35.34 11.02 -35 10 C-29.75537438 7.20445924 -23.80975875 6.5895214 -17.96875 6.2109375 C-15.99898644 6.20823726 -15.99898644 6.20823726 -15 5 C-13.33382885 4.95936168 -11.66611905 4.957279 -10 5 C-10 4.01 -10 3.02 -10 2 C-9.04287109 1.90912109 -9.04287109 1.90912109 -8.06640625 1.81640625 C-7.24011719 1.73261719 -6.41382813 1.64882812 -5.5625 1.5625 C-4.73878906 1.48128906 -3.91507812 1.40007812 -3.06640625 1.31640625 C-1.01337975 1.21069185 -1.01337975 1.21069185 0 0 Z " fill="#E38B76" transform="translate(287,149)"/>
<path d="M0 0 C1.08864349 0.00539291 1.08864349 0.00539291 2.19927979 0.01089478 C2.96020432 0.01074875 3.72112885 0.01060272 4.50511169 0.01045227 C7.03202113 0.01115155 9.55885776 0.01894462 12.08575439 0.02676392 C13.83310404 0.02862804 15.58045421 0.03005197 17.32780457 0.03105164 C21.93591749 0.03487724 26.54399909 0.04470788 31.15209961 0.05575562 C35.85068335 0.06596883 40.54927214 0.07054906 45.24786377 0.07559204 C54.47378902 0.08633011 63.69969098 0.10340704 72.92559814 0.12442017 C74.3258067 2.92483727 74.0892315 5.27744055 74.13092041 8.4100647 C74.14082001 9.05409241 74.1507196 9.69812012 74.16091919 10.36166382 C74.19254314 12.49348252 74.21729502 14.62532352 74.24200439 16.75723267 C74.26257316 18.23411646 74.28356961 19.71099435 74.30497742 21.18786621 C74.36020613 25.07747627 74.40961184 28.96713953 74.45782471 32.85684204 C74.50803392 36.82498923 74.563723 40.79305905 74.61895752 44.76113892 C74.72654886 52.54883383 74.82799163 60.33659303 74.92559814 68.12442017 C72.94559814 69.11442017 72.94559814 69.11442017 70.92559814 70.12442017 C70.92559814 48.01442017 70.92559814 25.90442017 70.92559814 3.12442017 C46.50559814 3.12442017 22.08559814 3.12442017 -3.07440186 3.12442017 C-3.07440186 29.85442017 -3.07440186 56.58442017 -3.07440186 84.12442017 C-8.07440186 84.12442017 -8.07440186 84.12442017 -11.07440186 82.12442017 C-11.26190186 79.49942017 -11.26190186 79.49942017 -11.07440186 77.12442017 C-12.06440186 76.79442017 -13.05440186 76.46442017 -14.07440186 76.12442017 C-13.57940186 75.13442017 -13.57940186 75.13442017 -13.07440186 74.12442017 C-12.08440186 74.45442017 -11.09440186 74.78442017 -10.07440186 75.12442017 C-9.76502686 75.78442017 -9.45565186 76.44442017 -9.13690186 77.12442017 C-8.78627686 77.78442017 -8.43565186 78.44442017 -8.07440186 79.12442017 C-6.75440186 79.45442017 -5.43440186 79.78442017 -4.07440186 80.12442017 C-4.07440186 64.28442017 -4.07440186 48.44442017 -4.07440186 32.12442017 C-4.73440186 32.12442017 -5.39440186 32.12442017 -6.07440186 32.12442017 C-6.09905689 27.72785844 -6.11724028 23.33133297 -6.1293335 18.9347229 C-6.13437306 17.43797098 -6.14120473 15.94122401 -6.14984131 14.44448853 C-6.16192344 12.2974221 -6.16763377 10.15042055 -6.17205811 8.00332642 C-6.17729492 6.70983276 -6.18253174 5.41633911 -6.18792725 4.08364868 C-6.00130294 -0.78102501 -4.40758686 0.00921263 0 0 Z " fill="#E6957F" transform="translate(408.07440185546875,255.87557983398438)"/>
<path d="M0 0 C2.0625 0.4375 2.0625 0.4375 4 1 C3.34 1 2.68 1 2 1 C2 1.66 2 2.32 2 3 C-0.31 3 -2.62 3 -5 3 C-5 3.99 -5 4.98 -5 6 C-6.98 6 -8.96 6 -11 6 C-11 65.4 -11 124.8 -11 186 C13.75 186 38.5 186 64 186 C64 156.96 64 127.92 64 98 C64.99 98 65.98 98 67 98 C67 98.66 67 99.32 67 100 C66.34 100 65.68 100 65 100 C65.00222061 101.08772202 65.00444122 102.17544403 65.00672913 103.29612732 C65.02695978 113.52353511 65.04197177 123.75093886 65.05181217 133.97836208 C65.05704119 139.23696664 65.06413918 144.4955551 65.07543945 149.75415039 C65.08626766 154.82453127 65.09227669 159.89489662 65.09487724 164.96528816 C65.09673161 166.90426948 65.10035245 168.84324991 65.10573006 170.78222466 C65.1129396 173.4882176 65.11399098 176.19414556 65.11352539 178.90014648 C65.11712067 179.71006546 65.12071594 180.51998444 65.12442017 181.35444641 C65.11405216 186.88594784 65.11405216 186.88594784 64 188 C61.66285675 188.10023555 59.35525675 188.13619203 57.01757812 188.12939453 C56.2875206 188.13114685 55.55746307 188.13289917 54.80528259 188.13470459 C52.38058122 188.13912299 49.95595218 188.13618517 47.53125 188.1328125 C45.85355617 188.13348554 44.17586244 188.13445557 42.49816895 188.13571167 C38.97744826 188.13718863 35.4567529 188.13503416 31.93603516 188.13037109 C27.41289504 188.1246738 22.88981426 188.12795282 18.36667633 188.13394356 C14.90097605 188.13754923 11.43528993 188.13641056 7.96958923 188.13381577 C6.30134575 188.13314651 4.63310101 188.13397486 2.96485901 188.13629532 C0.63734506 188.13882195 -1.69007148 188.13498113 -4.01757812 188.12939453 C-4.71371719 188.13141876 -5.40985626 188.13344299 -6.12709045 188.13552856 C-10.88573726 188.11426274 -10.88573726 188.11426274 -12 187 C-12.10205554 184.65396268 -12.13888078 182.33721206 -12.13371277 179.99050903 C-12.1371111 178.87759265 -12.1371111 178.87759265 -12.14057809 177.7421931 C-12.14694666 175.23713017 -12.14608691 172.73212095 -12.14526367 170.22705078 C-12.14825341 168.43868947 -12.1516555 166.6503288 -12.15544128 164.86196899 C-12.16430491 159.99007789 -12.1666204 155.11820433 -12.16725707 150.24630594 C-12.1682043 146.18551028 -12.17188048 142.12471875 -12.17542917 138.06392467 C-12.18358289 128.48613647 -12.18601258 118.90835768 -12.18530273 109.33056641 C-12.18470186 99.437078 -12.19525351 89.5436441 -12.2110464 79.65016949 C-12.224105 71.16864137 -12.22948733 62.6871311 -12.22884732 54.20559299 C-12.22859182 49.13447016 -12.23147176 44.06339572 -12.24202538 38.99228287 C-12.25167803 34.22352215 -12.25180509 29.45485636 -12.24450874 24.68609238 C-12.24345932 22.9328879 -12.24584683 21.1796776 -12.2518692 19.42648315 C-12.25954197 17.03869509 -12.25497587 14.65123874 -12.24723816 12.26345825 C-12.25238172 11.56472631 -12.25752529 10.86599436 -12.26282471 10.14608872 C-12.23679381 6.52721596 -12.07014322 5.10521483 -10 2 C-7.87109375 1.5234375 -7.87109375 1.5234375 -5.4375 1.375 C-2.41923553 1.39637058 -2.41923553 1.39637058 0 0 Z " fill="#E3856D" transform="translate(278,269)"/>
<path d="M0 0 C2.0625 0.4375 2.0625 0.4375 4 1 C0.37825721 4.62174279 -5.03284894 5.87956218 -10.0625 6.1875 C-11.0215625 6.0946875 -11.0215625 6.0946875 -12 6 C-12 6.66 -12 7.32 -12 8 C-12.71027344 8.13277344 -13.42054688 8.26554688 -14.15234375 8.40234375 C-15.53099609 8.66724609 -15.53099609 8.66724609 -16.9375 8.9375 C-18.31228516 9.19853516 -18.31228516 9.19853516 -19.71484375 9.46484375 C-21.95289844 9.77714988 -21.95289844 9.77714988 -23 11 C-24.36799796 11.32291797 -25.74493176 11.60834275 -27.125 11.875 C-30.17690284 12.5200394 -32.6004158 13.25732106 -35.5 14.5 C-38.32180239 15.70934388 -40.48157299 16.36652606 -43.4375 16.9375 C-46.67894485 17.580295 -49.1802308 18.51432015 -52.0625 20.125 C-56.19927686 22.37234357 -59.34667009 22.33238071 -64 22 C-64 22.66 -64 23.32 -64 24 C-67.3 24.33 -70.6 24.66 -74 25 C-74 25.66 -74 26.32 -74 27 C-75.7015625 27.4640625 -75.7015625 27.4640625 -77.4375 27.9375 C-80.78775099 28.62924531 -80.78775099 28.62924531 -82 30 C-84.31817089 30.32097751 -86.63779357 30.51220956 -88.96875 30.71875 C-90.99180593 30.79065837 -90.99180593 30.79065837 -92 32 C-94.67058851 32.14115161 -97.32432238 32.04247107 -100 32 C-100 32.99 -100 33.98 -100 35 C-100.60328125 35.04898438 -101.2065625 35.09796875 -101.828125 35.1484375 C-102.62734375 35.22320312 -103.4265625 35.29796875 -104.25 35.375 C-105.43335938 35.47941406 -105.43335938 35.47941406 -106.640625 35.5859375 C-109.0897978 36.01575922 -110.8005791 36.88165039 -113 38 C-115.25 37.625 -115.25 37.625 -117 37 C-112.65499721 34.02801809 -108.26177921 32.74415385 -103.25 31.375 C-98.23318529 30.36994827 -98.23318529 30.36994827 -94 28 C-92.453125 27.814375 -92.453125 27.814375 -90.875 27.625 C-86.85642776 26.97684319 -82.00074947 26.00074947 -79 23 C-77.48586842 22.67533241 -75.96311431 22.39052676 -74.4375 22.125 C-71.12277754 21.49407271 -68.07090732 20.75083599 -64.9375 19.5 C-59.84765794 17.47018322 -54.60751405 16.50229732 -49.2421875 15.46875 C-48.33726562 15.2934375 -47.43234375 15.118125 -46.5 14.9375 C-45.24703125 14.70353516 -45.24703125 14.70353516 -43.96875 14.46484375 C-42.00900429 14.18423641 -42.00900429 14.18423641 -41 13 C-39.33382885 12.95936168 -37.66611905 12.957279 -36 13 C-35.67 12.01 -35.34 11.02 -35 10 C-29.75537438 7.20445924 -23.80975875 6.5895214 -17.96875 6.2109375 C-15.99898644 6.20823726 -15.99898644 6.20823726 -15 5 C-13.33382885 4.95936168 -11.66611905 4.957279 -10 5 C-10 4.01 -10 3.02 -10 2 C-9.04287109 1.90912109 -9.04287109 1.90912109 -8.06640625 1.81640625 C-7.24011719 1.73261719 -6.41382813 1.64882812 -5.5625 1.5625 C-4.73878906 1.48128906 -3.91507812 1.40007812 -3.06640625 1.31640625 C-1.01337975 1.21069185 -1.01337975 1.21069185 0 0 Z " fill="#E1846F" transform="translate(287,149)"/>
<path d="M0 0 C-2.83202961 1.88801974 -5.26025619 2.96101651 -8.4375 4.125 C-9.38496094 4.47820313 -10.33242188 4.83140625 -11.30859375 5.1953125 C-14 6 -14 6 -18 6 C-18 6.99 -18 7.98 -18 9 C-21.63 9 -25.26 9 -29 9 C-29 9.66 -29 10.32 -29 11 C-30.4540625 11.1546875 -30.4540625 11.1546875 -31.9375 11.3125 C-35.6953881 11.84178001 -39.0805723 12.97933487 -42.6484375 14.2421875 C-45.80193007 15.25842929 -48.9937338 15.87906606 -52.25 16.47265625 C-52.8275 16.64667969 -53.405 16.82070313 -54 17 C-54.33 17.66 -54.66 18.32 -55 19 C-56.6352654 19.2384762 -58.27218736 19.46860713 -59.9140625 19.65625 C-62.95924733 20.15807821 -65.75266448 21.21797754 -68.65625 22.2421875 C-71.7455366 23.24105683 -74.86690491 23.87280469 -78.0546875 24.47265625 C-80.30048939 24.97089163 -80.30048939 24.97089163 -83 27 C-85.33199388 27.07905064 -87.66832622 27.08798769 -90 27 C-90 27.66 -90 28.32 -90 29 C-90.89203125 29.18175781 -91.7840625 29.36351562 -92.703125 29.55078125 C-93.87359375 29.80214844 -95.0440625 30.05351563 -96.25 30.3125 C-97.99023438 30.67794922 -97.99023438 30.67794922 -99.765625 31.05078125 C-102.90729128 31.97279201 -104.46817472 33.0356528 -107 35 C-110.75 35.1875 -110.75 35.1875 -114 35 C-114.33 35.99 -114.66 36.98 -115 38 C-120.61 38.66 -126.22 39.32 -132 40 C-130.515 39.505 -130.515 39.505 -129 39 C-128.67 38.01 -128.34 37.02 -128 36 C-126.64455078 35.80083984 -126.64455078 35.80083984 -125.26171875 35.59765625 C-124.08222656 35.42105469 -122.90273438 35.24445312 -121.6875 35.0625 C-120.51574219 34.88847656 -119.34398437 34.71445312 -118.13671875 34.53515625 C-114.98358597 34.07906969 -114.98358597 34.07906969 -112 33 C-111.67 32.34 -111.34 31.68 -111 31 C-106.51240928 28.86353882 -101.86733105 27.87393455 -96.9375 27.5 C-92.1778812 27.13217784 -88.35950694 25.87467641 -84 24 C-78.31423982 21.59404958 -73.17360272 20.41443166 -67 20 C-67 19.34 -67 18.68 -67 18 C-66.410979 17.86424561 -65.82195801 17.72849121 -65.21508789 17.58862305 C-62.49650503 16.95937324 -59.77951709 16.32347516 -57.0625 15.6875 C-56.13630859 15.47416016 -55.21011719 15.26082031 -54.25585938 15.04101562 C-49.03829829 13.81443109 -43.95920836 12.41838376 -38.8972168 10.65332031 C-35.96761638 9.64449124 -32.98069423 8.84453003 -30 8 C-27.72656516 7.34225955 -25.45592923 6.67480167 -23.1875 6 C-21.50720703 5.505 -21.50720703 5.505 -19.79296875 5 C-16.90580148 4.190712 -16.90580148 4.190712 -15 2 C-10.08393377 0.40719454 -5.16342413 -0.26479098 0 0 Z " fill="#E9A495" transform="translate(570,517)"/>
<path d="M0 0 C0.33 0 0.66 0 1 0 C1 41.58 1 83.16 1 126 C3.64 125.01 6.28 124.02 9 123 C9.99 123 10.98 123 12 123 C12 122.34 12 121.68 12 121 C13.19625 120.87625 14.3925 120.7525 15.625 120.625 C19.30297474 120.16284611 22.49501803 119.23705246 26 118 C28.8653867 117.24187493 31.73481621 116.50381669 34.609375 115.78125 C37.15168381 115.1499678 37.15168381 115.1499678 39 113 C40.89660187 112.76708398 42.79408388 112.53917195 44.6953125 112.34765625 C48.51799493 111.77101432 54.18245277 110.81754723 57 108 C58.99958364 107.95919217 61.00045254 107.95745644 63 108 C59.19687457 111.45738676 55.95813462 112.76046634 51 114 C50.67 114.33 50.34 114.66 50 115 C49.030625 115.103125 48.06125 115.20625 47.0625 115.3125 C43.78732021 115.72189747 41.09385588 116.70418892 38.0625 118 C34.97381993 119.30441994 32.34219642 120.22992352 29 120.5 C25.73103799 120.76859207 23.20084664 121.64199822 20.1875 122.9375 C13.67655761 125.7049021 7.06890949 127 0 127 C0 85.09 0 43.18 0 0 Z " fill="#DA6346" transform="translate(374,403)"/>
<path d="M0 0 C25.08 0 50.16 0 76 0 C76 22.44 76 44.88 76 68 C75.67 68 75.34 68 75 68 C75 45.89 75 23.78 75 1 C50.58 1 26.16 1 1 1 C1 27.73 1 54.46 1 82 C-4 82 -4 82 -7 80 C-7.1875 77.375 -7.1875 77.375 -7 75 C-7.99 74.67 -8.98 74.34 -10 74 C-9.505 73.01 -9.505 73.01 -9 72 C-8.01 72.33 -7.02 72.66 -6 73 C-5.690625 73.66 -5.38125 74.32 -5.0625 75 C-4.711875 75.66 -4.36125 76.32 -4 77 C-2.68 77.33 -1.36 77.66 0 78 C0 52.26 0 26.52 0 0 Z " fill="#F1C0B2" transform="translate(404,258)"/>
<path d="M0 0 C-2.52778477 2.52778477 -4.29410969 2.25114272 -7.72265625 2.5859375 C-10.24388656 3.04434301 -12.19500783 3.88944918 -14.5 5 C-17.5467529 6.46793294 -20.06888146 7.29605714 -23.4375 7.625 C-27.04665011 7.62718463 -27.04665011 7.62718463 -29 10 C-30.62533948 10.20316744 -32.2511438 10.40319494 -33.87890625 10.5859375 C-36.41028716 11.08009289 -38.56786994 11.98496586 -40.9375 13 C-44.07363361 14.32846809 -46.72970136 15.23317889 -50.125 15.5 C-54.17521949 16.02260897 -56.47527005 17.16230252 -59.9765625 19.0859375 C-62.17168945 20.07755855 -63.98566014 20.39210406 -66.375 20.625 C-70.03941204 20.61901696 -70.03941204 20.61901696 -72 23 C-73.89660187 23.23291602 -75.79408388 23.46082805 -77.6953125 23.65234375 C-81.51799493 24.22898568 -87.18245277 25.18245277 -90 28 C-91.84891946 28.23363881 -93.70488031 28.41303635 -95.5625 28.5625 C-97.08037109 28.68818359 -97.08037109 28.68818359 -98.62890625 28.81640625 C-99.41136719 28.87699219 -100.19382812 28.93757813 -101 29 C-98.3971029 25.09565435 -95.76647567 24.93741332 -91.4375 24 C-89.97596151 23.66012619 -88.5150155 23.31769405 -87.0546875 22.97265625 C-86.35182617 22.80781738 -85.64896484 22.64297852 -84.92480469 22.47314453 C-81.19951106 21.55741406 -77.60660232 20.29557559 -74 19 C-68.61584676 17.08298462 -63.67995975 15.81142282 -58 15 C-57.34 14.34 -56.68 13.68 -56 13 C-52.78201471 12.26946986 -49.57448683 11.69107258 -46.32226562 11.14453125 C-44.5364482 10.82235662 -42.76607894 10.41701982 -41 10 C-40.67 9.34 -40.34 8.68 -40 8 C-38.00718243 7.74286225 -36.01170139 7.49163848 -34.0078125 7.34375 C-31.69017751 7.08691645 -31.69017751 7.08691645 -29 5 C-25.22357082 3.71601408 -21.64401453 2.91263403 -17.6875 2.5625 C-13.27415255 2.1612866 -9.34157096 0.96898805 -5.1640625 -0.4765625 C-3 -1 -3 -1 0 0 Z " fill="#D95D3F" transform="translate(540,482)"/>
<path d="M0 0 C0.76248047 -0.00080566 1.52496094 -0.00161133 2.31054688 -0.00244141 C7.80338007 0.05338007 7.80338007 0.05338007 8.9375 1.1875 C10.26299087 1.51295535 11.59860935 1.79751123 12.9375 2.0625 C16.19431357 2.75302693 19.29419103 3.59176906 22.4375 4.6875 C29.23174228 7.02302078 35.92541058 8.33832262 43.08984375 8.84375 C44.9375 9.1875 44.9375 9.1875 46.9375 11.1875 C49.25689207 11.9011591 51.59273449 12.5622292 53.9375 13.1875 C55.94111307 13.84322791 57.94241933 14.50625294 59.9375 15.1875 C59.9375 15.8475 59.9375 16.5075 59.9375 17.1875 C60.5975 17.5175 61.2575 17.8475 61.9375 18.1875 C60.6175 18.1875 59.2975 18.1875 57.9375 18.1875 C57.9375 17.5275 57.9375 16.8675 57.9375 16.1875 C54.6375 16.1875 51.3375 16.1875 47.9375 16.1875 C47.9375 15.1975 47.9375 14.2075 47.9375 13.1875 C46.803125 13.208125 45.66875 13.22875 44.5 13.25 C40.9375 13.1875 40.9375 13.1875 39.9375 12.1875 C38.25566052 11.95462992 36.5662584 11.77485834 34.875 11.625 C33.95589844 11.54121094 33.03679687 11.45742187 32.08984375 11.37109375 C31.37957031 11.31050781 30.66929687 11.24992188 29.9375 11.1875 C29.9375 10.1975 29.9375 9.2075 29.9375 8.1875 C27.2975 8.1875 24.6575 8.1875 21.9375 8.1875 C21.9375 7.5275 21.9375 6.8675 21.9375 6.1875 C19.2975 6.1875 16.6575 6.1875 13.9375 6.1875 C13.4425 4.7025 13.4425 4.7025 12.9375 3.1875 C9.9675 3.1875 6.9975 3.1875 3.9375 3.1875 C3.9375 2.5275 3.9375 1.8675 3.9375 1.1875 C2.638125 1.331875 1.33875 1.47625 0 1.625 C-0.73089844 1.70621094 -1.46179688 1.78742188 -2.21484375 1.87109375 C-4.07390229 2.00636614 -4.07390229 2.00636614 -5.0625 3.1875 C-7.31665378 3.47039181 -9.57090656 3.6352119 -11.8359375 3.80859375 C-14.34170078 4.07950825 -14.34170078 4.07950825 -17.0625 6.1875 C-19.39449388 6.26655064 -21.73082622 6.27548769 -24.0625 6.1875 C-24.0625 6.8475 -24.0625 7.5075 -24.0625 8.1875 C-25.17625 8.31125 -26.29 8.435 -27.4375 8.5625 C-31.09353677 8.8340813 -31.09353677 8.8340813 -33.0625 11.1875 C-35.2265625 11.6015625 -35.2265625 11.6015625 -37.6875 11.8125 C-38.50476563 11.88726562 -39.32203125 11.96203125 -40.1640625 12.0390625 C-40.79054688 12.08804688 -41.41703125 12.13703125 -42.0625 12.1875 C-41.7325 11.5275 -41.4025 10.8675 -41.0625 10.1875 C-38.5 9.5625 -38.5 9.5625 -36.0625 9.1875 C-36.0625 8.5275 -36.0625 7.8675 -36.0625 7.1875 C-35.41023438 7.13851562 -34.75796875 7.08953125 -34.0859375 7.0390625 C-29.16942147 6.61847558 -24.63813545 6.18200776 -20.0625 4.1875 C-19.7325 3.5275 -19.4025 2.8675 -19.0625 2.1875 C-13.00740117 -0.08316206 -6.3786265 0.00668339 0 0 Z " fill="#E18570" transform="translate(375.0625,125.8125)"/>
<path d="M0 0 C0.66 0 1.32 0 2 0 C2 34.65 2 69.3 2 105 C-1.465 105.495 -1.465 105.495 -5 106 C-5.495 106.495 -5.495 106.495 -6 107 C-7.99958364 107.04080783 -10.00045254 107.04254356 -12 107 C-9 105 -9 105 -1 102 C-0.67 68.34 -0.34 34.68 0 0 Z " fill="#DD745D" transform="translate(583,410)"/>
<path d="M0 0 C0 25.08 0 50.16 0 76 C-4 73 -4 73 -4.50120544 69.95726013 C-4.50137161 68.708647 -4.50153778 67.46003387 -4.50170898 66.17358398 C-4.50711197 65.48385498 -4.51251495 64.79412598 -4.51808167 64.08349609 C-4.53058825 61.80392534 -4.51406863 59.52561276 -4.49609375 57.24609375 C-4.49624868 55.66333449 -4.49773662 54.08057484 -4.50050354 52.49781799 C-4.50188832 49.18139874 -4.48931534 45.86541156 -4.46655273 42.54907227 C-4.43814424 38.29268621 -4.44091042 34.03701696 -4.45364285 29.78057766 C-4.4605884 26.51294299 -4.45282411 23.24547482 -4.44038582 19.9778614 C-4.43586197 18.40813904 -4.43554264 16.83839887 -4.43945122 15.26867485 C-4.44235315 13.0777491 -4.42590814 10.88782129 -4.40405273 8.69702148 C-4.39864975 7.44920395 -4.39324677 6.20138641 -4.38768005 4.91575623 C-4.25974564 3.95355667 -4.13181122 2.99135712 -4 2 C-1 0 -1 0 0 0 Z " fill="#DC6D55" transform="translate(585,304)"/>
<path d="M0 0 C0.66 0 1.32 0 2 0 C2.09271207 8.01465346 2.16377038 16.02908259 2.20724869 24.04413986 C2.22811704 27.76594748 2.25641981 31.48738802 2.30175781 35.20898438 C2.34524413 38.8010951 2.36914277 42.39285295 2.37950897 45.9852066 C2.3868955 47.35517177 2.40132001 48.72511777 2.42292023 50.09493256 C2.4519848 52.01459389 2.45363416 53.9346109 2.45410156 55.85449219 C2.46298401 56.94703308 2.47186646 58.03957397 2.48101807 59.16522217 C1.88544967 62.67507807 0.72904672 63.79497855 -2 66 C-5.09647064 67.93529415 -6.13930677 68 -10 68 C-10 67.01 -10 66.02 -10 65 C-7.36 64.01 -4.72 63.02 -2 62 C-1.98969254 61.23800797 -1.97938507 60.47601593 -1.96876526 59.69093323 C-1.8709559 52.5244026 -1.7684656 45.35796173 -1.66066074 38.19157505 C-1.60539835 34.5068981 -1.55197321 30.82221327 -1.50268555 27.13745117 C-1.45509068 23.58422159 -1.40274993 20.03109125 -1.34705925 16.47797966 C-1.3266135 15.11957189 -1.30790415 13.76113688 -1.29092598 12.40268135 C-1.26693123 10.50610295 -1.23629668 8.60961201 -1.20532227 6.71313477 C-1.18977798 5.63169693 -1.1742337 4.55025909 -1.15821838 3.43605042 C-1 1 -1 1 0 0 Z " fill="#ECAA97" transform="translate(479,376)"/>
<path d="M0 0 C2.0625 0.4375 2.0625 0.4375 4 1 C3.34 1 2.68 1 2 1 C2 1.66 2 2.32 2 3 C-0.31 3 -2.62 3 -5 3 C-5 3.99 -5 4.98 -5 6 C-6.98 6 -8.96 6 -11 6 C-11 65.07 -11 124.14 -11 185 C-11.33 185 -11.66 185 -12 185 C-12.04667687 161.58273653 -12.08196766 138.16548002 -12.10362434 114.74817944 C-12.11394624 103.87564224 -12.12802398 93.00313391 -12.15087891 82.13061523 C-12.17078487 72.65647577 -12.18370979 63.18235721 -12.18817699 53.70819741 C-12.19078911 48.68959072 -12.19694763 43.67104384 -12.21146011 38.65245628 C-12.22499992 33.93214279 -12.22922996 29.21191394 -12.22621536 24.49158287 C-12.22676714 22.7561141 -12.23076598 21.0206426 -12.23841095 19.28519058 C-12.24831592 16.92144179 -12.24598529 14.55801542 -12.24050903 12.19425964 C-12.24633472 11.50262747 -12.2521604 10.81099531 -12.25816262 10.09840459 C-12.23547619 6.49222611 -12.06428325 5.09642487 -10 2 C-7.87109375 1.5234375 -7.87109375 1.5234375 -5.4375 1.375 C-2.41923553 1.39637058 -2.41923553 1.39637058 0 0 Z " fill="#E38C77" transform="translate(278,269)"/>
<path d="M0 0 C5.0573936 0.77806055 10.01373271 1.86749812 15 3 C16.68731934 3.37581204 18.3748129 3.75084295 20.0625 4.125 C21.375 4.41666667 22.6875 4.70833333 24 5 C24 5.66 24 6.32 24 7 C25.134375 7.0825 26.26875 7.165 27.4375 7.25 C32 8 32 8 41 12 C41 41.37 41 70.74 41 101 C30.44 101 19.88 101 9 101 C9 100.67 9 100.34 9 100 C19.23 100 29.46 100 40 100 C40 71.62 40 43.24 40 14 C38.68 14 37.36 14 36 14 C36 13.34 36 12.68 36 12 C35.175 11.896875 34.35 11.79375 33.5 11.6875 C30.79655827 11.1564668 28.757409 10.57157923 26.25 9.5625 C21.62244118 7.733 16.88837037 6.85145795 12 6 C11.67 5.01 11.34 4.02 11 3 C9.741875 3.061875 8.48375 3.12375 7.1875 3.1875 C3.27768014 3.20826011 3.27768014 3.20826011 1 1.5 C0.67 1.005 0.34 0.51 0 0 Z " fill="#E28874" transform="translate(544,175)"/>
<path d="M0 0 C1.67542976 0.28604898 3.34385343 0.61781233 5 1 C5 1.66 5 2.32 5 3 C3.35 2.67 1.7 2.34 0 2 C0 31.7 0 61.4 0 92 C-23.76 92 -47.52 92 -72 92 C-72 91.67 -72 91.34 -72 91 C-48.57 91 -25.14 91 -1 91 C-1.01160156 84.51472656 -1.02320313 78.02945313 -1.03515625 71.34765625 C-1.04026293 67.25065005 -1.0450767 63.15364774 -1.04882812 59.05664062 C-1.05481686 52.54694814 -1.06191797 46.03726965 -1.07543945 39.52758789 C-1.08626735 34.28214298 -1.09227662 29.03671308 -1.09487724 23.79125786 C-1.09673167 21.78529054 -1.10035262 19.77932408 -1.10573006 17.77336311 C-1.11293919 14.97397176 -1.113991 12.17464321 -1.11352539 9.37524414 C-1.11712067 8.53727295 -1.12071594 7.69930176 -1.12442017 6.8359375 C-1.11405216 1.11405216 -1.11405216 1.11405216 0 0 Z " fill="#FAEAE5" transform="translate(340,362)"/>
<path d="M0 0 C1.32 0.33 2.64 0.66 4 1 C3.67 1.66 3.34 2.32 3 3 C2.87802512 5.40973615 2.81440406 7.79254882 2.79467773 10.20361328 C2.78477814 10.9451767 2.77487854 11.68674011 2.76467896 12.45077515 C2.73303637 14.90725488 2.70829569 17.36375397 2.68359375 19.8203125 C2.6630266 21.521398 2.64203019 23.22247836 2.62062073 24.92355347 C2.56537536 29.40500736 2.51597697 33.88650756 2.46777344 38.36804199 C2.4175764 42.93941377 2.36188096 47.51071813 2.30664062 52.08203125 C2.19902891 61.05462994 2.09759064 70.02728711 2 79 C1.34 79 0.68 79 0 79 C0 52.93 0 26.86 0 0 Z " fill="#DA6345" transform="translate(540,401)"/>
<path d="M0 0 C2.0625 0.4375 2.0625 0.4375 4 1 C0.37825721 4.62174279 -5.03284894 5.87956218 -10.0625 6.1875 C-11.0215625 6.0946875 -11.0215625 6.0946875 -12 6 C-12 6.66 -12 7.32 -12 8 C-12.71027344 8.13277344 -13.42054688 8.26554688 -14.15234375 8.40234375 C-15.07144531 8.57894531 -15.99054688 8.75554687 -16.9375 8.9375 C-17.85402344 9.11152344 -18.77054687 9.28554687 -19.71484375 9.46484375 C-21.95289844 9.77714988 -21.95289844 9.77714988 -23 11 C-25.11682557 11.49967986 -27.24630716 11.89808614 -29.3828125 12.3046875 C-32.14785589 12.95995925 -32.14785589 12.95995925 -35.1484375 14.4453125 C-40.57743879 16.85119722 -46.44440166 17.49001329 -52.26171875 18.4609375 C-56.3781918 19.18562684 -60.10772179 19.9056744 -63.90625 21.6875 C-67 23 -67 23 -69.4375 22.6875 C-69.953125 22.460625 -70.46875 22.23375 -71 22 C-64.7313768 19.30409942 -58.70360812 17.25692652 -52 16 C-50.16618328 15.64834481 -48.33284677 15.29417615 -46.5 14.9375 C-45.24703125 14.70353516 -45.24703125 14.70353516 -43.96875 14.46484375 C-42.00900429 14.18423641 -42.00900429 14.18423641 -41 13 C-39.33382885 12.95936168 -37.66611905 12.957279 -36 13 C-35.67 12.01 -35.34 11.02 -35 10 C-29.75537438 7.20445924 -23.80975875 6.5895214 -17.96875 6.2109375 C-15.99898644 6.20823726 -15.99898644 6.20823726 -15 5 C-13.33382885 4.95936168 -11.66611905 4.957279 -10 5 C-10 4.01 -10 3.02 -10 2 C-9.04287109 1.90912109 -9.04287109 1.90912109 -8.06640625 1.81640625 C-7.24011719 1.73261719 -6.41382813 1.64882812 -5.5625 1.5625 C-4.73878906 1.48128906 -3.91507812 1.40007812 -3.06640625 1.31640625 C-1.01337975 1.21069185 -1.01337975 1.21069185 0 0 Z " fill="#EDB5A7" transform="translate(287,149)"/>
<path d="M0 0 C0.99 0 1.98 0 3 0 C3.268125 0.639375 3.53625 1.27875 3.8125 1.9375 C4.88667752 4.33131686 4.88667752 4.33131686 8 5 C9.31640625 7.21484375 9.31640625 7.21484375 10.5625 9.9375 C12.32437611 13.78077076 12.32437611 13.78077076 15 17 C18.5 17.33333333 18.5 17.33333333 22 17 C22.66 16.34 23.32 15.68 24 15 C28.86354698 12.7234461 34.00496093 11.85996322 39.234375 10.78125 C40.14703125 10.5234375 41.0596875 10.265625 42 10 C42.33 9.34 42.66 8.68 43 8 C44.99054876 7.30562253 46.99255385 6.64389782 49 6 C49.99 5.46375 50.98 4.9275 52 4.375 C55.273095 2.87483146 57.44439305 2.74602808 61 3 C58.08616689 4.94255541 55.12736438 6.43631781 52 8 C51.67 8.33 51.34 8.66 51 9 C49.00041636 9.04080783 46.99954746 9.04254356 45 9 C44.67 9.99 44.34 10.98 44 12 C39.92532275 13.48882438 36.33458585 14.26270217 32 14 C31.67 14.99 31.34 15.98 31 17 C28.69 17 26.38 17 24 17 C23.67 17.99 23.34 18.98 23 20 C19.92466273 20.36180438 17.06616681 20.49038021 14 20 C10.3870475 16.70819883 8.35629937 13.0013718 6.046875 8.7421875 C4.33913486 5.90020204 2.15433724 3.51339345 0 1 C0 0.67 0 0.34 0 0 Z " fill="#E99F8B" transform="translate(408,441)"/>
<path d="M0 0 C-6.22968771 2.64289781 -12.51910992 4.18101073 -19.1796875 5.2421875 C-21.78193239 5.94140566 -23.76386546 6.85826568 -26.16015625 8.0546875 C-31.35052971 10.43109395 -35.93410566 10.46472964 -41.5625 10.25 C-42.93245117 10.22292969 -42.93245117 10.22292969 -44.33007812 10.1953125 C-46.55453514 10.14872701 -48.77666967 10.08335485 -51 10 C-51 9.34 -51 8.68 -51 8 C-53.31 8 -55.62 8 -58 8 C-58.33 7.01 -58.66 6.02 -59 5 C-60.32 4.67 -61.64 4.34 -63 4 C-59.04 4 -55.08 4 -51 4 C-51 4.66 -51 5.32 -51 6 C-49.576875 6.2165625 -49.576875 6.2165625 -48.125 6.4375 C-45 7 -45 7 -43 8 C-38.16968442 8.23372495 -35.24615905 8.32853883 -31 6 C-28.66993089 5.64456573 -26.33672984 5.3086247 -24 5 C-23.67 4.67 -23.34 4.34 -23 4 C-21.329375 3.7834375 -21.329375 3.7834375 -19.625 3.5625 C-15.91489453 3.24699783 -15.91489453 3.24699783 -13 1 C-10.87890625 0.33203125 -10.87890625 0.33203125 -8.5625 -0.1875 C-7.41974609 -0.45626953 -7.41974609 -0.45626953 -6.25390625 -0.73046875 C-3.87041504 -1.0154963 -2.26895796 -0.72875415 0 0 Z " fill="#E69684" transform="translate(414,565)"/>
<path d="M0 0 C0.33 0 0.66 0 1 0 C1.04626195 13.26459209 1.08183788 26.52916512 1.10362434 39.79382133 C1.1140787 45.95258297 1.12826797 52.11128957 1.15087891 58.27001953 C1.17254846 64.20924549 1.18455617 70.14841839 1.18975449 76.08768082 C1.19346086 78.35798097 1.20069805 80.62827809 1.21146011 82.89855576 C1.22589677 86.06899124 1.22798123 89.23920511 1.22705078 92.40966797 C1.23424133 93.35625275 1.24143188 94.30283752 1.24884033 95.27810669 C1.246091 96.13909973 1.24334167 97.00009277 1.24050903 97.88717651 C1.24235262 98.637516 1.24419621 99.38785549 1.24609566 100.16093254 C1 102 1 102 -1 104 C-3.1640625 104.6328125 -3.1640625 104.6328125 -5.625 105.125 C-6.44226563 105.29257812 -7.25953125 105.46015625 -8.1015625 105.6328125 C-8.72804688 105.75398437 -9.35453125 105.87515625 -10 106 C-9.67 105.01 -9.34 104.02 -9 103 C-6.69 103 -4.38 103 -2 103 C-2 102.34 -2 101.68 -2 101 C-1.34 101 -0.68 101 0 101 C0 67.67 0 34.34 0 0 Z " fill="#D95F44" transform="translate(582,410)"/>
<path d="M0 0 C0.66 0.33 1.32 0.66 2 1 C1.67 27.73 1.34 54.46 1 82 C-4 82 -4 82 -7 80 C-7.1875 77.375 -7.1875 77.375 -7 75 C-7.99 74.67 -8.98 74.34 -10 74 C-9.505 73.01 -9.505 73.01 -9 72 C-8.01 72.33 -7.02 72.66 -6 73 C-5.690625 73.66 -5.38125 74.32 -5.0625 75 C-4.711875 75.66 -4.36125 76.32 -4 77 C-2.68 77.33 -1.36 77.66 0 78 C0 52.26 0 26.52 0 0 Z " fill="#ECAA98" transform="translate(404,258)"/>
<path d="M0 0 C1.60670684 3.21341369 0.82510855 6.62958968 0.5625 10.125 C0.51029297 10.87910156 0.45808594 11.63320313 0.40429688 12.41015625 C0.27454996 14.2737937 0.13792512 16.13694996 0 18 C-1.84121215 16.90902202 -3.67281256 15.80180749 -5.5 14.6875 C-6.5209375 14.07261719 -7.541875 13.45773437 -8.59375 12.82421875 C-9.3878125 12.22222656 -10.181875 11.62023437 -11 11 C-11 10.01 -11 9.02 -11 8 C-8.59375 5.95703125 -8.59375 5.95703125 -5.5 3.8125 C-3.96859375 2.73935547 -3.96859375 2.73935547 -2.40625 1.64453125 C-1.6121875 1.10183594 -0.818125 0.55914062 0 0 Z " fill="#DF755A" transform="translate(543,332)"/>
<path d="M0 0 C13.21707415 2.10220807 25.39470083 4.93979652 37.88671875 9.82421875 C41.23195437 11.08760134 44.53900378 12.11462887 48 13 C45.53898622 14.23050689 44.27573817 13.98600075 41.5625 13.6875 C40.78003906 13.60886719 39.99757813 13.53023437 39.19140625 13.44921875 C37 13 37 13 34 11 C31.75354124 10.58256635 31.75354124 10.58256635 29.375 10.4375 C25.09841828 10.09841828 25.09841828 10.09841828 24 9 C21.67182036 8.63239269 19.3381615 8.29758419 17 8 C16.67 7.01 16.34 6.02 16 5 C14.865625 4.855625 13.73125 4.71125 12.5625 4.5625 C9 4 9 4 8 3 C6.845 2.855625 5.69 2.71125 4.5 2.5625 C3.345 2.376875 2.19 2.19125 1 2 C0.67 1.34 0.34 0.68 0 0 Z " fill="#F6DCD6" transform="translate(251,539)"/>
<path d="M0 0 C4.57864703 -0.35220362 7.9789606 0.4853821 12.21484375 2.00390625 C14.42861302 2.79564701 16.64448331 3.5476372 18.87890625 4.27734375 C19.55767822 4.49946533 20.2364502 4.72158691 20.93579102 4.95043945 C22.30176195 5.39682357 23.66813075 5.84199219 25.03491211 6.28588867 C29.88833363 7.88833363 29.88833363 7.88833363 31 9 C32.53388576 9.24841085 34.07657632 9.44304791 35.62109375 9.61328125 C36.55630859 9.72736328 37.49152344 9.84144531 38.45507812 9.95898438 C40.4381685 10.19404617 42.42259945 10.4180695 44.40820312 10.63085938 C45.34470703 10.74880859 46.28121094 10.86675781 47.24609375 10.98828125 C48.10904053 11.08665283 48.9719873 11.18502441 49.86108398 11.28637695 C52 12 52 12 53.29711914 14.06323242 C53.52906982 14.70236572 53.76102051 15.34149902 54 16 C48.375 16.25 48.375 16.25 45 14 C39.77857087 11.83501719 34.57815546 11.41891286 29 11 C29 10.34 29 9.68 29 9 C27.576875 9.061875 27.576875 9.061875 26.125 9.125 C23 9 23 9 21 7 C18.66371161 6.62276444 16.35695314 6.494845 13.99609375 6.34375 C13.33738281 6.2303125 12.67867188 6.116875 12 6 C11.67 5.34 11.34 4.68 11 4 C9.906875 3.855625 8.81375 3.71125 7.6875 3.5625 C4.05389072 3.00822062 2.64048966 2.42925049 0 0 Z " fill="#E07F68" transform="translate(438,144)"/>
<path d="M0 0 C0.76183594 0.20496094 1.52367187 0.40992188 2.30859375 0.62109375 C7.24527267 1.909191 12.03396529 3.11402386 17.125 3.5625 C21 4 21 4 23 6 C25.31939207 6.7136591 27.65523449 7.3747292 30 8 C32.00361307 8.65572791 34.00491933 9.31875294 36 10 C36 10.66 36 11.32 36 12 C36.66 12.33 37.32 12.66 38 13 C36.68 13 35.36 13 34 13 C34 12.34 34 11.68 34 11 C30.7 11 27.4 11 24 11 C24 10.01 24 9.02 24 8 C22.865625 8.020625 21.73125 8.04125 20.5625 8.0625 C17 8 17 8 16 7 C14.31816052 6.76712992 12.6287584 6.58735834 10.9375 6.4375 C10.01839844 6.35371094 9.09929687 6.26992187 8.15234375 6.18359375 C7.08693359 6.09271484 7.08693359 6.09271484 6 6 C6 5.01 6 4.02 6 3 C5.195625 2.87625 4.39125 2.7525 3.5625 2.625 C2.716875 2.41875 1.87125 2.2125 1 2 C0.67 1.34 0.34 0.68 0 0 Z " fill="#F2CBC1" transform="translate(399,131)"/>
<path d="M0 0 C2.0625 0.4375 2.0625 0.4375 4 1 C3.34 1 2.68 1 2 1 C2 1.66 2 2.32 2 3 C-0.31 3 -2.62 3 -5 3 C-5 3.99 -5 4.98 -5 6 C-6.98 6 -8.96 6 -11 6 C-11 22.83 -11 39.66 -11 57 C-11.33 57 -11.66 57 -12 57 C-12.05062952 49.64936254 -12.08570377 42.29876989 -12.10986328 34.94799805 C-12.11993288 32.44635335 -12.13358934 29.94472045 -12.15087891 27.44311523 C-12.17508492 23.85137014 -12.18647346 20.2597804 -12.1953125 16.66796875 C-12.20563507 15.54601608 -12.21595764 14.42406342 -12.22659302 13.26811218 C-12.22674408 12.22725967 -12.22689514 11.18640717 -12.22705078 10.11401367 C-12.231492 9.19690109 -12.23593323 8.27978851 -12.24050903 7.33488464 C-12 5 -12 5 -10 2 C-7.87109375 1.5234375 -7.87109375 1.5234375 -5.4375 1.375 C-2.41923553 1.39637058 -2.41923553 1.39637058 0 0 Z " fill="#E89C88" transform="translate(278,269)"/>
<path d="M0 0 C0.33 0 0.66 0 1 0 C1.09271207 8.01465346 1.16377038 16.02908259 1.20724869 24.04413986 C1.22811704 27.76594748 1.25641981 31.48738802 1.30175781 35.20898438 C1.34524413 38.8010951 1.36914277 42.39285295 1.37950897 45.9852066 C1.3868955 47.35517177 1.40132001 48.72511777 1.42292023 50.09493256 C1.4519848 52.01459389 1.45363416 53.9346109 1.45410156 55.85449219 C1.46298401 56.94703308 1.47186646 58.03957397 1.48101807 59.16522217 C0.88204465 62.69514483 -0.18667288 63.84896661 -3 66 C-6.25 66.75 -6.25 66.75 -9 67 C-9 66.01 -9 65.02 -9 64 C-6.36 63.01 -3.72 62.02 -1 61 C-0.67 40.87 -0.34 20.74 0 0 Z " fill="#F5D1C6" transform="translate(478,377)"/>
<path d="M0 0 C1.64671412 0.30782496 3.29235576 0.62139234 4.9375 0.9375 C5.85402344 1.11152344 6.77054687 1.28554688 7.71484375 1.46484375 C10 2 10 2 11 3 C12.49120388 3.35208981 13.99382692 3.65625472 15.5 3.9375 C22.76157776 5.33594935 29.91041011 6.88820727 37 9 C37 9.66 37 10.32 37 11 C41.95 12.485 41.95 12.485 47 14 C42.39683212 15.15079197 40.41203623 14.52415797 36 13 C35.01 12.34 34.02 11.68 33 11 C30.9507906 10.54860541 30.9507906 10.54860541 28.8125 10.375 C27.554375 10.25125 26.29625 10.1275 25 10 C25 9.34 25 8.68 25 8 C23.7934375 7.814375 23.7934375 7.814375 22.5625 7.625 C15.30834118 6.35234056 7.76256975 5.01900435 1 2 C0.67 1.34 0.34 0.68 0 0 Z " fill="#EAA899" transform="translate(304,554)"/>
<path d="M0 0 C0.99 0.33 1.98 0.66 3 1 C3.309375 1.66 3.61875 2.32 3.9375 3 C4.82027141 5.20605562 4.82027141 5.20605562 7.125 5.75 C7.74375 5.8325 8.3625 5.915 9 6 C9 7.65 9 9.3 9 11 C9.66 11 10.32 11 11 11 C11 11.66 11 12.32 11 13 C11.99 13.33 12.98 13.66 14 14 C14 14.66 14 15.32 14 16 C14.99 16 15.98 16 17 16 C17.28875 16.804375 17.5775 17.60875 17.875 18.4375 C18.73262568 21.1326468 18.73262568 21.1326468 21 22 C24 26.5 24 26.5 24 29 C24.66 29 25.32 29 26 29 C26 29.66 26 30.32 26 31 C25.01 31 24.02 31 23 31 C21.94410931 29.36816893 20.9563874 27.69207001 20 26 C19.12253893 24.92227755 18.22602043 23.85983187 17.3125 22.8125 C15 20 15 20 15 18 C14.01 17.67 13.02 17.34 12 17 C12 16.34 12 15.68 12 15 C11.34 15 10.68 15 10 15 C10 14.34 10 13.68 10 13 C9.01 12.67 8.02 12.34 7 12 C5.95355934 10.36209288 4.9601817 8.68991979 4 7 C3.278125 6.113125 2.55625 5.22625 1.8125 4.3125 C0 2 0 2 0 0 Z " fill="#ECAC9B" transform="translate(332,260)"/>
<path d="M0 0 C0.66 0.33 1.32 0.66 2 1 C1.34 1.66 0.68 2.32 0 3 C-0.33264555 5.8323903 -0.33264555 5.8323903 -0.31884766 9.19384766 C-0.33871735 10.49504547 -0.35858704 11.79624329 -0.37905884 13.13687134 C-0.3909362 14.5626 -0.402599 15.98833045 -0.4140625 17.4140625 C-0.43276674 18.86853138 -0.45233959 20.32298933 -0.4727478 21.7774353 C-0.52415394 25.60784469 -0.56373399 29.43828928 -0.60089111 33.26885986 C-0.64087782 37.17672497 -0.6919944 41.08444252 -0.7421875 44.9921875 C-0.8390471 52.66135723 -0.92341947 60.33059813 -1 68 C-3.475 68.495 -3.475 68.495 -6 69 C-5.51326309 68.46798981 -5.02652618 67.93597961 -4.52503967 67.3878479 C-2.57664705 64.33713039 -2.61592389 62.40053756 -2.59936523 58.79443359 C-2.58602646 57.53988373 -2.57268768 56.28533386 -2.5589447 54.99276733 C-2.55880952 53.62799072 -2.55869298 52.26321411 -2.55859375 50.8984375 C-2.54682037 49.49645609 -2.53345623 48.09448721 -2.51856995 46.6925354 C-2.48241431 43.00753736 -2.46218872 39.32265047 -2.44702148 35.63751221 C-2.42216894 29.73200551 -2.38264253 23.82674426 -2.32512093 17.92146683 C-2.30876357 15.85736637 -2.30501223 13.79349695 -2.30210876 11.7293396 C-2.29192215 10.48109406 -2.28173553 9.23284851 -2.27124023 7.94677734 C-2.26696518 6.84409515 -2.26269012 5.74141296 -2.25828552 4.60531616 C-2 2 -2 2 0 0 Z " fill="#E28268" transform="translate(483,373)"/>
<path d="M0 0 C2.97 0 5.94 0 9 0 C9.33 0.99 9.66 1.98 10 3 C12.97 3 15.94 3 19 3 C19 3.66 19 4.32 19 5 C21.64 5.33 24.28 5.66 27 6 C27 6.66 27 7.32 27 8 C29.64 8 32.28 8 35 8 C35.495 8.99 35.495 8.99 36 10 C32.7 10 29.4 10 26 10 C26 9.34 26 8.68 26 8 C25.37351562 7.95101562 24.74703125 7.90203125 24.1015625 7.8515625 C23.28429687 7.77679688 22.46703125 7.70203125 21.625 7.625 C20.40683594 7.52058594 20.40683594 7.52058594 19.1640625 7.4140625 C17 7 17 7 15 5 C13.03309626 4.32707499 13.03309626 4.32707499 10.875 3.875 C9.59625 3.58625 8.3175 3.2975 7 3 C7 2.34 7 1.68 7 1 C4.69 1 2.38 1 0 1 C0 0.67 0 0.34 0 0 Z " fill="#D8593B" transform="translate(415,182)"/>
<path d="M0 0 C-5.81475715 3.27591952 -10.24520726 5.7342166 -17 5 C-17 5.66 -17 6.32 -17 7 C-18.11375 7.12375 -19.2275 7.2475 -20.375 7.375 C-24.03103677 7.6465813 -24.03103677 7.6465813 -26 10 C-28.1640625 10.4140625 -28.1640625 10.4140625 -30.625 10.625 C-31.44226563 10.69976562 -32.25953125 10.77453125 -33.1015625 10.8515625 C-33.72804688 10.90054688 -34.35453125 10.94953125 -35 11 C-34.67 10.34 -34.34 9.68 -34 9 C-31.4375 8.375 -31.4375 8.375 -29 8 C-29 7.34 -29 6.68 -29 6 C-28.34773438 5.95101562 -27.69546875 5.90203125 -27.0234375 5.8515625 C-22.10692147 5.43097558 -17.57563545 4.99450776 -13 3 C-12.67 2.34 -12.34 1.68 -12 1 C-9.78515625 0.33203125 -9.78515625 0.33203125 -7.0625 -0.1875 C-6.16660156 -0.36667969 -5.27070313 -0.54585938 -4.34765625 -0.73046875 C-2 -1 -2 -1 0 0 Z " fill="#E79B8A" transform="translate(368,127)"/>
<path d="M0 0 C0.66 0 1.32 0 2 0 C1.67 10.56 1.34 21.12 1 32 C0.34 32 -0.32 32 -1 32 C-1.02465504 27.60343827 -1.04283842 23.2069128 -1.05493164 18.81030273 C-1.05997121 17.31355082 -1.06680287 15.81680384 -1.07543945 14.32006836 C-1.08752159 12.17300193 -1.09323191 10.02600038 -1.09765625 7.87890625 C-1.10289307 6.5854126 -1.10812988 5.29191895 -1.11352539 3.95922852 C-1 1 -1 1 0 0 Z " fill="#E4866D" transform="translate(403,256)"/>
<path d="M0 0 C2.0625 0.4375 2.0625 0.4375 4 1 C0.37825721 4.62174279 -5.03284894 5.87956218 -10.0625 6.1875 C-11.0215625 6.0946875 -11.0215625 6.0946875 -12 6 C-12 6.66 -12 7.32 -12 8 C-13.60341555 8.33692785 -15.20776555 8.66941093 -16.8125 9 C-17.70582031 9.185625 -18.59914063 9.37125 -19.51953125 9.5625 C-22 10 -22 10 -25 10 C-24 8 -24 8 -22.109375 7.1484375 C-14.28930818 4.58490566 -14.28930818 4.58490566 -10 5 C-10 4.01 -10 3.02 -10 2 C-9.04287109 1.90912109 -9.04287109 1.90912109 -8.06640625 1.81640625 C-7.24011719 1.73261719 -6.41382813 1.64882812 -5.5625 1.5625 C-4.73878906 1.48128906 -3.91507812 1.40007812 -3.06640625 1.31640625 C-1.01337975 1.21069185 -1.01337975 1.21069185 0 0 Z " fill="#E28873" transform="translate(287,149)"/>
<path d="M0 0 C1.64574566 -0.02688151 3.29161413 -0.04634123 4.9375 -0.0625 C5.85402344 -0.07410156 6.77054688 -0.08570313 7.71484375 -0.09765625 C10 0 10 0 11 1 C12.51165654 1.39148761 14.03469632 1.73972457 15.5625 2.0625 C16.38878906 2.23910156 17.21507812 2.41570313 18.06640625 2.59765625 C18.70449219 2.73042969 19.34257812 2.86320313 20 3 C20 3.66 20 4.32 20 5 C20.969375 5.103125 21.93875 5.20625 22.9375 5.3125 C27.48593839 5.94629879 31.69417104 7.44755827 36 9 C32.60739785 10.69630108 29.04268223 9.0455388 25.5 8.1875 C24.71496094 8.00896484 23.92992187 7.83042969 23.12109375 7.64648438 C17.25225851 6.25225851 17.25225851 6.25225851 15 4 C12.450504 3.37551671 9.95279906 2.84109651 7.375 2.375 C6.31539062 2.17390625 6.31539062 2.17390625 5.234375 1.96875 C3.49088082 1.63889975 1.74559611 1.31853944 0 1 C0 0.67 0 0.34 0 0 Z " fill="#DE7961" transform="translate(229,532)"/>
<path d="M0 0 C5.0573936 0.77806055 10.01373271 1.86749812 15 3 C16.68731934 3.37581204 18.3748129 3.75084295 20.0625 4.125 C21.375 4.41666667 22.6875 4.70833333 24 5 C24 5.66 24 6.32 24 7 C25.299375 7.12375 26.59875 7.2475 27.9375 7.375 C30.15234375 7.5859375 30.15234375 7.5859375 32 8 C32.495 8.99 32.495 8.99 33 10 C27.94270205 9.58131302 23.70303434 8.98022498 19 7 C16.67402489 6.6186926 14.34087842 6.27539746 12 6 C11.67 5.01 11.34 4.02 11 3 C9.741875 3.061875 8.48375 3.12375 7.1875 3.1875 C3.27768014 3.20826011 3.27768014 3.20826011 1 1.5 C0.67 1.005 0.34 0.51 0 0 Z " fill="#E9A393" transform="translate(544,175)"/>
<path d="M0 0 C-3.6441774 2.4294516 -5.71241272 2.16179575 -10 2 C-10.33 2.99 -10.66 3.98 -11 5 C-16.61 5.66 -22.22 6.32 -28 7 C-27.01 6.67 -26.02 6.34 -25 6 C-24.67 5.01 -24.34 4.02 -24 3 C-23.16597656 2.87882813 -22.33195312 2.75765625 -21.47265625 2.6328125 C-16.20655712 1.84862821 -10.99193353 1.05657962 -5.8125 -0.1875 C-2 -1 -2 -1 0 0 Z " fill="#F5D6CE" transform="translate(466,550)"/>
<path d="M0 0 C1.32 0 2.64 0 4 0 C4 0.66 4 1.32 4 2 C9.28 2.66 14.56 3.32 20 4 C20.33 4.99 20.66 5.98 21 7 C21.845625 6.938125 22.69125 6.87625 23.5625 6.8125 C27.73619843 7.04015628 30.25432947 8.20207814 34 10 C32.25 10.625 32.25 10.625 30 11 C28.65952898 10.34780396 27.32689539 9.67939006 26 9 C24.65738943 8.6410843 23.30124012 8.33014993 21.9375 8.0625 C14.50323634 6.50449425 7.16838802 4.51862282 0 2 C0 1.34 0 0.68 0 0 Z " fill="#E07F68" transform="translate(184,517)"/>
<path d="M0 0 C1.4540625 0.0309375 1.4540625 0.0309375 2.9375 0.0625 C1.9475 0.3925 0.9575 0.7225 -0.0625 1.0625 C-0.0625 1.7225 -0.0625 2.3825 -0.0625 3.0625 C-1.031875 3.145 -2.00125 3.2275 -3 3.3125 C-6.98110426 3.86744181 -10.23674059 5.38116171 -13.85546875 7.0703125 C-18.38167636 9.10510318 -22.16146365 10.54025282 -27.0625 9.0625 C-20.07671616 6.29227537 -13.13649371 3.65076922 -5.890625 1.640625 C-0.75117925 0.01533019 -0.75117925 0.01533019 0 0 Z " fill="#EDAE9D" transform="translate(309.0625,258.9375)"/>
<path d="M0 0 C-5.5825192 3.32575612 -9.49686791 4.46450943 -16 4 C-16 4.66 -16 5.32 -16 6 C-19.3 6.33 -22.6 6.66 -26 7 C-26 7.66 -26 8.32 -26 9 C-27.32 8.67 -28.64 8.34 -30 8 C-27.24787569 5.24787569 -24.10779248 4.83377384 -20.4375 3.9375 C-15.85324462 3.14444754 -15.85324462 3.14444754 -12 1 C-10.36530922 0.57907433 -8.71653706 0.21197742 -7.0625 -0.125 C-6.16660156 -0.31320313 -5.27070313 -0.50140625 -4.34765625 -0.6953125 C-2 -1 -2 -1 0 0 Z " fill="#DC7057" transform="translate(239,167)"/>
<path d="M0 0 C0 0.66 0 1.32 0 2 C0.66 2.33 1.32 2.66 2 3 C-0.97 3 -3.94 3 -7 3 C-7 3.66 -7 4.32 -7 5 C-18.52164009 7.29612756 -18.52164009 7.29612756 -24 7 C-23.01 6.67 -22.02 6.34 -21 6 C-21 5.34 -21 4.68 -21 4 C-20.38253906 3.96261719 -19.76507813 3.92523438 -19.12890625 3.88671875 C-13.67918643 3.46368114 -8.93635735 2.53339051 -3.8125 0.62109375 C-2 0 -2 0 0 0 Z " fill="#E07E67" transform="translate(316,142)"/>
<path d="M0 0 C24.74139095 3.93517893 24.74139095 3.93517893 32 8 C30.0625 8.5625 30.0625 8.5625 28 9 C27.67 8.67 27.34 8.34 27 8 C23.64114115 7.34250526 20.27837127 6.75405287 16.90234375 6.19335938 C13.34775342 5.56855434 11.04298934 5.02865956 8 3 C6.80375 2.835 5.6075 2.67 4.375 2.5 C2.704375 2.2525 2.704375 2.2525 1 2 C0.67 1.34 0.34 0.68 0 0 Z " fill="#EAA99A" transform="translate(251,539)"/>
<path d="M0 0 C-6.47159814 2.74552648 -13.07117049 4.27584838 -19.9609375 5.53515625 C-21.98333529 5.80591773 -21.98333529 5.80591773 -23 7 C-25.01311449 7.39569108 -27.03597208 7.74252191 -29.0625 8.0625 C-30.16722656 8.23910156 -31.27195312 8.41570313 -32.41015625 8.59765625 C-33.26480469 8.73042969 -34.11945313 8.86320313 -35 9 C-34.67 8.34 -34.34 7.68 -34 7 C-31.75 6.40234375 -31.75 6.40234375 -29 5.9375 C-25.69940294 5.5954649 -25.69940294 5.5954649 -23 4 C-21.329375 3.7834375 -21.329375 3.7834375 -19.625 3.5625 C-15.91489453 3.24699783 -15.91489453 3.24699783 -13 1 C-10.87890625 0.33203125 -10.87890625 0.33203125 -8.5625 -0.1875 C-7.80066406 -0.36667969 -7.03882813 -0.54585937 -6.25390625 -0.73046875 C-3.87041504 -1.0154963 -2.26895796 -0.72875415 0 0 Z " fill="#E79D8C" transform="translate(414,565)"/>
<path d="M0 0 C2.97 0 5.94 0 9 0 C9 0.99 9 1.98 9 3 C9.95712891 2.98259766 9.95712891 2.98259766 10.93359375 2.96484375 C11.75988281 2.95582031 12.58617187 2.94679688 13.4375 2.9375 C14.26121094 2.92589844 15.08492188 2.91429687 15.93359375 2.90234375 C18 3 18 3 19 4 C21.32817964 4.36760731 23.6618385 4.70241581 26 5 C26.33 5.99 26.66 6.98 27 8 C26.33484375 7.86464844 25.6696875 7.72929688 24.984375 7.58984375 C22.74817783 7.14787284 20.50782295 6.72685044 18.265625 6.31640625 C16.92705411 6.06525985 15.58851299 5.81395475 14.25 5.5625 C13.56550781 5.44068359 12.88101562 5.31886719 12.17578125 5.19335938 C10.43672282 4.86104425 8.71567395 4.43728763 7 4 C6.67 3.34 6.34 2.68 6 2 C2.97065509 1.34227572 2.97065509 1.34227572 0 1 C0 0.67 0 0.34 0 0 Z " fill="#DA654A" transform="translate(292,550)"/>
<path d="M0 0 C5.99538879 0.42824206 11.67278914 1.5183173 17.5 2.9375 C18.21865234 3.10733398 18.93730469 3.27716797 19.67773438 3.45214844 C21.46965613 3.90227232 23.23801014 4.44413415 25 5 C25.33 5.66 25.66 6.32 26 7 C23.67236982 6.54949093 21.35406094 6.086564 19.05078125 5.5234375 C13.06155078 4.08258134 7.13962069 3.43608521 1 3 C0.67 2.01 0.34 1.02 0 0 Z " fill="#EFBEB3" transform="translate(492,160)"/>
<path d="M0 0 C1.60670684 3.21341369 0.82510855 6.62958968 0.5625 10.125 C0.51029297 10.87910156 0.45808594 11.63320313 0.40429688 12.41015625 C0.27454996 14.2737937 0.13792512 16.13694996 0 18 C-0.99 17.34 -1.98 16.68 -3 16 C-3.3984375 13.06640625 -3.3984375 13.06640625 -3.375 9.5625 C-3.38273438 8.40878906 -3.39046875 7.25507813 -3.3984375 6.06640625 C-3 3 -3 3 -1.4765625 1.08984375 C-0.98929688 0.73019531 -0.50203125 0.37054688 0 0 Z " fill="#D96143" transform="translate(543,332)"/>
<path d="M0 0 C-6.24200353 4.16133569 -13.57423289 6.25742329 -21 7 C-22.66934283 7.31966139 -24.3373217 7.64731066 -26 8 C-21.06583158 3.82493441 -15.10852423 2.72882761 -9 1 C-5.8035914 -0.06546953 -3.34252724 -0.07427838 0 0 Z " fill="#E4907D" transform="translate(570,517)"/>
<path d="M0 0 C4.95 0.99 4.95 0.99 10 2 C10.33 2.99 10.66 3.98 11 5 C12.155 4.9175 13.31 4.835 14.5 4.75 C19.39304621 4.71504967 22.86849494 6.53867784 27 9 C25 10 25 10 23.15234375 9.51171875 C22.42144531 9.23972656 21.69054687 8.96773437 20.9375 8.6875 C16.3527026 7.06495806 11.76328382 5.95716105 7 5 C7 4.34 7 3.68 7 3 C5.824375 3.0928125 5.824375 3.0928125 4.625 3.1875 C3.75875 3.125625 2.8925 3.06375 2 3 C1.34 2.01 0.68 1.02 0 0 Z " fill="#F5D8D1" transform="translate(428,138)"/>
<path d="M0 0 C2.64 0 5.28 0 8 0 C8 0.33 8 0.66 8 1 C7.04480469 1.25394531 6.08960938 1.50789062 5.10546875 1.76953125 C-2.603394 3.8209625 -10.30721379 5.88888196 -18 8 C-18 7.01 -18 6.02 -18 5 C-15.36 5 -12.72 5 -10 5 C-9.67 4.01 -9.34 3.02 -9 2 C-6.03 2 -3.06 2 0 2 C0 1.34 0 0.68 0 0 Z " fill="#F4D2CA" transform="translate(321,138)"/>
<path d="M0 0 C7.90595447 -0.6874743 14.04693198 2.52346599 21 6 C18.03 6 15.06 6 12 6 C12 5.34 12 4.68 12 4 C10.88625 4.020625 9.7725 4.04125 8.625 4.0625 C5 4 5 4 3 3 C3 2.34 3 1.68 3 1 C2.01 0.67 1.02 0.34 0 0 Z " fill="#F3CEC6" transform="translate(203,525)"/>
<path d="M0 0 C2.01822917 0.06510417 4.03645833 0.13020833 6.0546875 0.1953125 C6.0546875 0.5253125 6.0546875 0.8553125 6.0546875 1.1953125 C-13.12800481 7.13762019 -13.12800481 7.13762019 -18.9453125 8.1953125 C-15.63249005 4.35941282 -12.20921272 3.3666888 -7.2578125 2.6953125 C-3.83796853 2.17910964 -3.09497321 0.31074028 0 0 Z " fill="#DA664B" transform="translate(546.9453125,520.8046875)"/>
<path d="M0 0 C0.99 0.33 1.98 0.66 3 1 C3 1.66 3 2.32 3 3 C3.99 3.33 4.98 3.66 6 4 C9.34073619 6.75119451 10.52153935 8.69385411 11 13 C11.66 13 12.32 13 13 13 C12.67 13.99 12.34 14.98 12 16 C10.36603572 14.27860959 8.74308726 12.54871208 7.125 10.8125 C6.66480469 10.32974609 6.20460938 9.84699219 5.73046875 9.34960938 C3.00397016 6.40578119 1.21861865 3.83094484 0 0 Z " fill="#F3CBC0" transform="translate(351,372)"/>
<path d="M0 0 C1.92134857 0.23595509 3.84244377 0.47429545 5.76171875 0.7265625 C7.79371116 0.97479892 9.83452546 1.1479456 11.875 1.3125 C15 2 15 2 16.4375 4.0625 C16.623125 4.701875 16.80875 5.34125 17 6 C11.375 6.25 11.375 6.25 8 4 C6.989375 3.67 5.97875 3.34 4.9375 3 C2 2 2 2 0 0 Z " fill="#ECB1A4" transform="translate(475,154)"/>
<path d="M0 0 C2.05078125 0.03255208 4.1015625 0.06510417 6.15234375 0.09765625 C6.15234375 0.42765625 6.15234375 0.75765625 6.15234375 1.09765625 C5.18296875 1.40703125 4.21359375 1.71640625 3.21484375 2.03515625 C0.31168583 2.79288967 0.31168583 2.79288967 -0.84765625 4.09765625 C-3.18063058 4.13858562 -5.5147085 4.14007348 -7.84765625 4.09765625 C-7.84765625 4.75765625 -7.84765625 5.41765625 -7.84765625 6.09765625 C-10.48765625 6.09765625 -13.12765625 6.09765625 -15.84765625 6.09765625 C-15.84765625 6.75765625 -15.84765625 7.41765625 -15.84765625 8.09765625 C-17.16765625 7.76765625 -18.48765625 7.43765625 -19.84765625 7.09765625 C-16.84765625 5.09765625 -16.84765625 5.09765625 -13.59765625 4.66015625 C-8.8437055 3.94706364 -4.27898039 0.22616175 0 0 Z " fill="#EBAD9E" transform="translate(209.84765625,171.90234375)"/>
<path d="M0 0 C2.64 0 5.28 0 8 0 C8 0.66 8 1.32 8 2 C8.886875 2.12375 9.77375 2.2475 10.6875 2.375 C13.70387502 2.94412736 16.20326054 3.76614436 19 5 C19 5.33 19 5.66 19 6 C16.69 6 14.38 6 12 6 C12 5.34 12 4.68 12 4 C9.69 4 7.38 4 5 4 C4.67 3.01 4.34 2.02 4 1 C1.98491642 0.26676204 1.98491642 0.26676204 0 0 Z " fill="#F1C8BE" transform="translate(351,569)"/>
<path d="M0 0 C-3 2 -3 2 -6.0625 2.375 C-10.309267 3.04909 -13.67116415 4.40989956 -17.5703125 6.16015625 C-20.19522728 7.0674821 -22.24315395 7.15206802 -25 7 C-20.66125457 4.10750305 -15.9124755 2.6832958 -11 1 C-10.29488281 0.75636719 -9.58976562 0.51273438 -8.86328125 0.26171875 C-5.58490404 -0.78366401 -3.25626224 -1.3025049 0 0 Z " fill="#D75637" transform="translate(427,516)"/>
<path d="M0 0 C13.81776765 0.59453303 13.81776765 0.59453303 19 4 C19 4.33 19 4.66 19 5 C14.01290081 5.16905421 10.5666205 5.16313602 6 3 C4.00379834 2.32204472 2.00461299 1.65266469 0 1 C0 0.67 0 0.34 0 0 Z " fill="#EFBDB1" transform="translate(521,168)"/>
<path d="M0 0 C-2.52462389 2.52462389 -4.28115824 2.2536343 -7.70703125 2.578125 C-11.07909344 3.19853849 -13.89863866 4.68094462 -16.921875 6.2578125 C-19.37903066 7.13536809 -20.57910232 6.86149062 -23 6 C-19.00687639 3.31736097 -14.99008621 1.93982691 -10.375 0.75 C-9.37339844 0.4715625 -9.37339844 0.4715625 -8.3515625 0.1875 C-5.03237781 -0.68876476 -3.32442566 -1.10814189 0 0 Z " fill="#D75738" transform="translate(540,482)"/>
<path d="M0 0 C3.375 -0.125 3.375 -0.125 7 0 C7.66 0.66 8.32 1.32 9 2 C11.65537372 2.56520003 14.29144713 2.73788198 17 3 C17 3.66 17 4.32 17 5 C12.37081104 5.18153682 9.22117746 4.84000043 5 3 C3.0075675 2.62406934 1.0081326 2.28020455 -1 2 C-0.67 1.34 -0.34 0.68 0 0 Z " fill="#D85B3C" transform="translate(460,195)"/>
<path d="M0 0 C0.33 0.33 0.66 0.66 1 1 C3.32817964 1.36760731 5.6618385 1.70241581 8 2 C8 2.66 8 3.32 8 4 C8.66 4.33 9.32 4.66 10 5 C9.32582031 4.84660156 8.65164063 4.69320312 7.95703125 4.53515625 C4.53122048 3.91516143 1.16106553 3.6647426 -2.3125 3.4375 C-3.56675781 3.35371094 -4.82101562 3.26992187 -6.11328125 3.18359375 C-7.54220703 3.09271484 -7.54220703 3.09271484 -9 3 C-5.8097106 0.41511733 -4.16759046 -0.45055032 0 0 Z " fill="#F1C6BC" transform="translate(378,123)"/>
<path d="M0 0 C7.6886567 -0.49076532 13.97986644 2.05607302 21 5 C21 5.33 21 5.66 21 6 C13.45385773 5.31398707 6.74109772 3.50719273 0 0 Z " fill="#EFBFB4" transform="translate(229,533)"/>
<path d="M0 0 C3.68996811 2.29598016 6.73675646 4.22792744 9 8 C9 8.66 9 9.32 9 10 C9.99 10.33 10.98 10.66 12 11 C12.6875 13.0625 12.6875 13.0625 13 15 C12.01 14.67 11.02 14.34 10 14 C10 13.34 10 12.68 10 12 C9.34 12 8.68 12 8 12 C7.67 11.01 7.34 10.02 7 9 C6.195625 8.195625 5.39125 7.39125 4.5625 6.5625 C2.35026339 4.35026339 1.15801474 2.84239983 0 0 Z " fill="#ECAA98" transform="translate(368,393)"/>
<path d="M0 0 C3.96 0.33 7.92 0.66 12 1 C12.33 1.99 12.66 2.98 13 4 C14.65 4 16.3 4 18 4 C18 4.33 18 4.66 18 5 C16.741875 5.04125 15.48375 5.0825 14.1875 5.125 C13.47980469 5.14820313 12.77210938 5.17140625 12.04296875 5.1953125 C10 5 10 5 7 3 C4.67891331 2.29187186 2.34622853 1.61975848 0 1 C0 0.67 0 0.34 0 0 Z " fill="#DD7056" transform="translate(166,512)"/>
<path d="M0 0 C-1 1 -1 1 -4.5625 1.0625 C-5.696875 1.041875 -6.83125 1.02125 -8 1 C-8.33 1.99 -8.66 2.98 -9 4 C-10.92578125 4.765625 -10.92578125 4.765625 -13.3125 5.25 C-14.48232422 5.50523437 -14.48232422 5.50523437 -15.67578125 5.765625 C-18.07651867 6.00771617 -19.71809588 5.7310448 -22 5 C-21.14535156 4.72285156 -20.29070312 4.44570313 -19.41015625 4.16015625 C-18.30542969 3.79792969 -17.20070313 3.43570313 -16.0625 3.0625 C-14.96035156 2.70285156 -13.85820312 2.34320312 -12.72265625 1.97265625 C-10.11876525 1.26143332 -10.11876525 1.26143332 -9 0 C-2.4 -1.2 -2.4 -1.2 0 0 Z " fill="#ECB1A4" transform="translate(437,558)"/>
<path d="M0 0 C3.84810226 1.28270075 3.94782496 2.57970827 6 6 C7.9204981 8.09777484 9.94160373 10.03308801 12 12 C11.67 12.66 11.34 13.32 11 14 C10.54109375 13.51789063 10.0821875 13.03578125 9.609375 12.5390625 C8.99578125 11.90742188 8.3821875 11.27578125 7.75 10.625 C7.14671875 9.99851562 6.5434375 9.37203125 5.921875 8.7265625 C4.0299412 7.02689839 2.31798691 6.01540134 0 5 C0 3.35 0 1.7 0 0 Z " fill="#F0B9AA" transform="translate(368,301)"/>
<path d="M0 0 C6.0546875 -0.1953125 6.0546875 -0.1953125 8 0 C8.66 0.66 9.32 1.32 10 2 C12.32275177 2.40047444 14.65739357 2.7397104 17 3 C17.33 3.99 17.66 4.98 18 6 C13.95295419 5.27595226 10.10929598 4.16553713 6.1875 2.9375 C5.02605469 2.57527344 3.86460937 2.21304688 2.66796875 1.83984375 C1.78753906 1.56269531 0.90710938 1.28554687 0 1 C0 0.67 0 0.34 0 0 Z " fill="#F0C3B9" transform="translate(455,148)"/>
<path d="M0 0 C0.90492188 0.02320313 1.80984375 0.04640625 2.7421875 0.0703125 C4.10730469 0.09738281 4.10730469 0.09738281 5.5 0.125 C6.19867188 0.14820313 6.89734375 0.17140625 7.6171875 0.1953125 C8.6796875 2.0078125 8.6796875 2.0078125 9.6171875 4.1953125 C9.2871875 5.1853125 8.9571875 6.1753125 8.6171875 7.1953125 C7.8953125 6.3703125 7.1734375 5.5453125 6.4296875 4.6953125 C3.91065582 1.97674006 3.91065582 1.97674006 0.9921875 1.8828125 C0.2084375 1.9859375 -0.5753125 2.0890625 -1.3828125 2.1953125 C-2.3728125 2.1953125 -3.3628125 2.1953125 -4.3828125 2.1953125 C-2.3828125 0.1953125 -2.3828125 0.1953125 0 0 Z " fill="#E2826B" transform="translate(322.3828125,252.8046875)"/>
<path d="M0 0 C12.66970387 1.92710706 12.66970387 1.92710706 18 4 C18 4.33 18 4.66 18 5 C15.36 5 12.72 5 10 5 C10 4.34 10 3.68 10 3 C7.03 3 4.06 3 1 3 C0.67 2.01 0.34 1.02 0 0 Z " fill="#DE755D" transform="translate(501,163)"/>
<path d="M0 0 C0.99 0 1.98 0 3 0 C3.268125 0.639375 3.53625 1.27875 3.8125 1.9375 C4.88667752 4.33131686 4.88667752 4.33131686 8 5 C9.75 7.9375 9.75 7.9375 11 11 C10.67 11.66 10.34 12.32 10 13 C8.70291686 11.58829091 7.41254022 10.17041804 6.125 8.75 C5.40570313 7.96109375 4.68640625 7.1721875 3.9453125 6.359375 C2.23064517 4.27973832 1.07019127 2.45580733 0 0 Z " fill="#F2C3B6" transform="translate(408,441)"/>
<path d="M0 0 C2.0625 0.4375 2.0625 0.4375 4 1 C-1.81876669 4.25850935 -8.57357166 5.421579 -15 7 C-14.67 6.01 -14.34 5.02 -14 4 C-12.35 4 -10.7 4 -9 4 C-9 3.34 -9 2.68 -9 2 C-6.94921875 1.77213542 -4.8984375 1.54427083 -2.84765625 1.31640625 C-0.98859771 1.18113386 -0.98859771 1.18113386 0 0 Z " fill="#E07C63" transform="translate(312,256)"/>
<path d="M0 0 C5.94 0.99 5.94 0.99 12 2 C12 2.66 12 3.32 12 4 C13.32 4.33 14.64 4.66 16 5 C10.06997733 5.37851209 5.52760359 4.10575375 0 2 C0 1.34 0 0.68 0 0 Z " fill="#DC6F55" transform="translate(528,171)"/>
<path d="M0 0 C-0.9590625 0.1546875 -0.9590625 0.1546875 -1.9375 0.3125 C-2.618125 0.539375 -3.29875 0.76625 -4 1 C-4.33 1.99 -4.66 2.98 -5 4 C-8.63 4.33 -12.26 4.66 -16 5 C-15 3 -15 3 -13.14453125 2.1484375 C-8.62151874 0.6483429 -4.83255247 -0.37173481 0 0 Z " fill="#F1C7BD" transform="translate(267,156)"/>
<path d="M0 0 C1.14726562 -0.00773437 2.29453125 -0.01546875 3.4765625 -0.0234375 C4.91128906 0.17378906 4.91128906 0.17378906 6.375 0.375 C7.035 1.365 7.695 2.355 8.375 3.375 C7.055 3.375 5.735 3.375 4.375 3.375 C4.375 2.715 4.375 2.055 4.375 1.375 C3.075625 1.519375 1.77625 1.66375 0.4375 1.8125 C-0.29339844 1.89371094 -1.02429688 1.97492188 -1.77734375 2.05859375 C-3.63640229 2.19386614 -3.63640229 2.19386614 -4.625 3.375 C-6.62458364 3.41580783 -8.62545254 3.41754356 -10.625 3.375 C-7.18492549 0.17217201 -4.62468696 -0.03131842 0 0 Z " fill="#DC6F56" transform="translate(374.625,125.625)"/>
<path d="M0 0 C-6.08356979 3.09212176 -11.18012971 4.56699236 -18 5 C-15.53031367 2.53031367 -13.42511413 1.93002031 -10.125 0.8125 C-9.07570312 0.44769531 -8.02640625 0.08289063 -6.9453125 -0.29296875 C-4.06405115 -0.98462433 -2.72213388 -1.03230681 0 0 Z " fill="#E28874" transform="translate(257,161)"/>
<path d="M0 0 C0 0.33 0 0.66 0 1 C-0.99902344 1.20496094 -1.99804688 1.40992188 -3.02734375 1.62109375 C-4.31769531 1.89050781 -5.60804688 2.15992188 -6.9375 2.4375 C-8.22527344 2.70433594 -9.51304687 2.97117187 -10.83984375 3.24609375 C-13.84638879 3.67181616 -13.84638879 3.67181616 -15 5 C-16.66617115 5.04063832 -18.33388095 5.042721 -20 5 C-13.2897071 1.36525801 -7.65133742 -0.40989308 0 0 Z " fill="#EBA491" transform="translate(452,452)"/>
<path d="M0 0 C0.99 0.33 1.98 0.66 3 1 C3.309375 1.66 3.61875 2.32 3.9375 3 C4.82027141 5.20605562 4.82027141 5.20605562 7.125 5.75 C7.74375 5.8325 8.3625 5.915 9 6 C9 7.65 9 9.3 9 11 C1.33257403 5.03416856 1.33257403 5.03416856 0 0 Z " fill="#E6927C" transform="translate(332,260)"/>
<path d="M0 0 C1.65 0 3.3 0 5 0 C3 3 3 3 0.87109375 3.4765625 C0.06800781 3.52554688 -0.73507813 3.57453125 -1.5625 3.625 C-4.58076447 3.60362942 -4.58076447 3.60362942 -7 5 C-8.66617115 5.04063832 -10.33388095 5.042721 -12 5 C-10.68 4.67 -9.36 4.34 -8 4 C-8 3.34 -8 2.68 -8 2 C-5.36 2 -2.72 2 0 2 C0 1.34 0 0.68 0 0 Z " fill="#DB694F" transform="translate(202,176)"/>
<path d="M0 0 C6.57315478 -0.36517527 11.79485526 0.86380263 18 3 C18 3.66 18 4.32 18 5 C11.8887076 3.9611908 5.92295536 2.84269722 0 1 C0 0.67 0 0.34 0 0 Z " fill="#F7E0DB" transform="translate(395,130)"/>
<path d="M0 0 C-5.08940744 2.05362055 -9.54520815 3.43179252 -15 4 C-14.01 3.67 -13.02 3.34 -12 3 C-11.67 2.01 -11.34 1.02 -11 0 C-9.54263913 -0.19491452 -8.08405407 -0.38069358 -6.625 -0.5625 C-5.81289063 -0.66691406 -5.00078125 -0.77132812 -4.1640625 -0.87890625 C-2 -1 -2 -1 0 0 Z " fill="#E8A08F" transform="translate(453,553)"/>
<path d="M0 0 C3.62187387 0.55721136 7.2215131 1.2089771 10.8125 1.9375 C11.58207031 2.09089844 12.35164063 2.24429688 13.14453125 2.40234375 C13.75683594 2.59957031 14.36914062 2.79679688 15 3 C15.33 3.66 15.66 4.32 16 5 C4.29384966 4.58997722 4.29384966 4.58997722 0 0 Z " fill="#EDB5A8" transform="translate(283,548)"/>
<path d="M0 0 C1.22589844 0.01353516 1.22589844 0.01353516 2.4765625 0.02734375 C3.41628906 0.04474609 3.41628906 0.04474609 4.375 0.0625 C4.375 0.3925 4.375 0.7225 4.375 1.0625 C3.26125 1.18625 2.1475 1.31 1 1.4375 C-2.65603677 1.7090813 -2.65603677 1.7090813 -4.625 4.0625 C-7.25733792 4.9188027 -9.92046818 5.45179927 -12.625 6.0625 C-12.295 5.0725 -11.965 4.0825 -11.625 3.0625 C-9.975 3.0625 -8.325 3.0625 -6.625 3.0625 C-6.625 2.4025 -6.625 1.7425 -6.625 1.0625 C-4.21954362 -0.14022819 -2.67503047 -0.03821472 0 0 Z " fill="#DA6346" transform="translate(322.625,251.9375)"/>
<path d="M0 0 C2.64 0 5.28 0 8 0 C8.33 0.66 8.66 1.32 9 2 C11.3140622 2.73075648 13.64828869 3.40138258 16 4 C12.49195332 5.75402334 8.65500408 3.98937179 5 3 C3.31503622 2.38103371 1.63596029 1.73882078 0 1 C0 0.67 0 0.34 0 0 Z " fill="#D85A3B" transform="translate(399,177)"/>
<path d="M0 0 C2.0625 0.4375 2.0625 0.4375 4 1 C-0.39251833 3.02055843 -4.15340923 4.40895235 -9 5 C-8.67 4.01 -8.34 3.02 -8 2 C-6.865625 1.855625 -5.73125 1.71125 -4.5625 1.5625 C-1.19222799 1.38828522 -1.19222799 1.38828522 0 0 Z " fill="#F7DED9" transform="translate(189,177)"/>
<path d="M0 0 C-1.7015625 0.7115625 -1.7015625 0.7115625 -3.4375 1.4375 C-6.75740166 2.63622083 -6.75740166 2.63622083 -8 4 C-10.67058851 4.14115161 -13.32432238 4.04247107 -16 4 C-16 3.67 -16 3.34 -16 3 C-14.5459375 2.5359375 -14.5459375 2.5359375 -13.0625 2.0625 C-10.15934208 1.30476658 -10.15934208 1.30476658 -9 0 C-2.4 -1.2 -2.4 -1.2 0 0 Z " fill="#DB6B51" transform="translate(300,149)"/>
<path d="M0 0 C2.1270011 0.25464098 4.25162215 0.52922942 6.375 0.8125 C8.15003906 1.03873047 8.15003906 1.03873047 9.9609375 1.26953125 C13 2 13 2 15 5 C14.071875 4.7834375 14.071875 4.7834375 13.125 4.5625 C8.77462983 3.77943337 4.39978093 3.40153341 0 3 C0 2.01 0 1.02 0 0 Z " fill="#E0816A" transform="translate(405,134)"/>
<path d="M0 0 C1.93922422 0.45098238 3.87633594 0.91105559 5.8125 1.375 C6.89144531 1.63023437 7.97039062 1.88546875 9.08203125 2.1484375 C12 3 12 3 15 5 C12.69 5 10.38 5 8 5 C8 4.34 8 3.68 8 3 C5.69 3 3.38 3 1 3 C0.67 2.01 0.34 1.02 0 0 Z " fill="#F6DCD6" transform="translate(311,557)"/>
<path d="M0 0 C1.6065676 0.25620684 3.2102483 0.53055871 4.8125 0.8125 C6.15248047 1.03873047 6.15248047 1.03873047 7.51953125 1.26953125 C10.18321256 2.05395393 11.25690322 2.88627799 13 5 C8.51474352 4.343621 4.33085971 3.29925791 0 2 C0 1.34 0 0.68 0 0 Z " fill="#F7DDD7" transform="translate(294,552)"/>
<path d="M0 0 C2.0625 0.4375 2.0625 0.4375 4 1 C1.62283018 3.37716982 0.8160297 3.31140657 -2.4375 3.5625 C-5.23687087 3.78847887 -7.30459034 4.10153011 -10 5 C-10 4.01 -10 3.02 -10 2 C-9.04287109 1.90912109 -9.04287109 1.90912109 -8.06640625 1.81640625 C-6.82697266 1.69072266 -6.82697266 1.69072266 -5.5625 1.5625 C-4.73878906 1.48128906 -3.91507812 1.40007812 -3.06640625 1.31640625 C-1.01337975 1.21069185 -1.01337975 1.21069185 0 0 Z " fill="#EEB9AD" transform="translate(287,149)"/>
<path d="M0 0 C2.97 0 5.94 0 9 0 C9 0.99 9 1.98 9 3 C10.98 3 12.96 3 15 3 C15.33 3.66 15.66 4.32 16 5 C14.5199159 4.88637738 13.04089926 4.75877092 11.5625 4.625 C10.73878906 4.55539062 9.91507812 4.48578125 9.06640625 4.4140625 C8.38449219 4.27742187 7.70257813 4.14078125 7 4 C6.67 3.34 6.34 2.68 6 2 C2.97065509 1.34227572 2.97065509 1.34227572 0 1 C0 0.67 0 0.34 0 0 Z " fill="#DF7B63" transform="translate(292,550)"/>
<path d="M0 0 C1.65 0 3.3 0 5 0 C4.67 0.99 4.34 1.98 4 3 C1.93359375 3.73046875 1.93359375 3.73046875 -0.5625 4.1875 C-1.38878906 4.34605469 -2.21507812 4.50460937 -3.06640625 4.66796875 C-4.02353516 4.83232422 -4.02353516 4.83232422 -5 5 C-5 4.01 -5 3.02 -5 2 C-3.35 2 -1.7 2 0 2 C0 1.34 0 0.68 0 0 Z " fill="#F7D7CD" transform="translate(446,449)"/>
<path d="M0 0 C-5.71735105 2.45029331 -9.79029227 3.33266291 -16 3 C-16 2.67 -16 2.34 -16 2 C-14.08654673 1.46748234 -12.1690705 0.94940517 -10.25 0.4375 C-9.18265625 0.14746094 -8.1153125 -0.14257812 -7.015625 -0.44140625 C-4.15664073 -0.97098494 -2.68402617 -0.98370862 0 0 Z " fill="#E0816B" transform="translate(333,139)"/>
<path d="M0 0 C1.65 0 3.3 0 5 0 C2.98619929 2.7245539 1.93565126 3.01149085 -1.5 3.625 C-3.2325 3.810625 -3.2325 3.810625 -5 4 C-5.99 4.33 -6.98 4.66 -8 5 C-8 4.01 -8 3.02 -8 2 C-5.36 2 -2.72 2 0 2 C0 1.34 0 0.68 0 0 Z " fill="#DA664B" transform="translate(396,566)"/>
<path d="M0 0 C5.94 0.99 5.94 0.99 12 2 C12 2.66 12 3.32 12 4 C12.66 4.33 13.32 4.66 14 5 C12.68 5 11.36 5 10 5 C10 4.34 10 3.68 10 3 C6.7 3 3.4 3 0 3 C0 2.01 0 1.02 0 0 Z " fill="#E28671" transform="translate(423,139)"/>
<path d="M0 0 C-0.99 0.33 -1.98 0.66 -3 1 C-3 1.66 -3 2.32 -3 3 C-9.625 4 -9.625 4 -13 4 C-9.15294495 0.15294495 -5.29192831 -0.2461362 0 0 Z " fill="#F3C9BE" transform="translate(312,259)"/>
<path d="M0 0 C2.97 0 5.94 0 9 0 C9.33 0.99 9.66 1.98 10 3 C6.7 2.67 3.4 2.34 0 2 C0 1.34 0 0.68 0 0 Z " fill="#D85B3D" transform="translate(485,203)"/>
<path d="M0 0 C2.97 0.33 5.94 0.66 9 1 C9 1.66 9 2.32 9 3 C6.36 3 3.72 3 1 3 C0.67 2.01 0.34 1.02 0 0 Z " fill="#E38D79" transform="translate(492,160)"/>
<path d="M0 0 C1.93922422 0.45098238 3.87633594 0.91105559 5.8125 1.375 C6.89144531 1.63023437 7.97039062 1.88546875 9.08203125 2.1484375 C12 3 12 3 15 5 C9.85004829 5.38624638 5.55706182 4.37097727 1 2 C0.67 1.34 0.34 0.68 0 0 Z " fill="#EBAD9E" transform="translate(399,131)"/>
<path d="M0 0 C4.3177458 0.50797009 8.03302114 1.19682779 12 3 C7.99608513 4.60156595 4.92968808 3.4087561 1 2 C0.67 1.34 0.34 0.68 0 0 Z " fill="#EFBDB2" transform="translate(339,565)"/>
<path d="M0 0 C-2.85478326 1.90318884 -4.41941308 2.4619099 -7.6875 3.125 C-8.49574219 3.29257812 -9.30398438 3.46015625 -10.13671875 3.6328125 C-10.75160156 3.75398437 -11.36648438 3.87515625 -12 4 C-11.67 3.01 -11.34 2.02 -11 1 C-7.08609399 -0.47694566 -4.00565371 -1.60226148 0 0 Z " fill="#DD7058" transform="translate(428,559)"/>
<path d="M0 0 C3.3 0 6.6 0 10 0 C6.55549263 2.29633824 4.06187717 2.54016485 0 3 C0 2.01 0 1.02 0 0 Z " fill="#DC7057" transform="translate(431,555)"/>
<path d="M0 0 C0 0.66 0 1.32 0 2 C-1.7015625 2.2165625 -1.7015625 2.2165625 -3.4375 2.4375 C-6.80777201 2.61171478 -6.80777201 2.61171478 -8 4 C-9.99958364 4.04080783 -12.00045254 4.04254356 -14 4 C-11.17991324 2.11994216 -9.65676336 1.54324907 -6.4375 0.875 C-5.65246094 0.70742188 -4.86742187 0.53984375 -4.05859375 0.3671875 C-2 0 -2 0 0 0 Z " fill="#EBAEA0" transform="translate(585,513)"/>
<path d="M0 0 C1.32 0 2.64 0 4 0 C4.33 1.65 4.66 3.3 5 5 C5.99 5.33 6.98 5.66 8 6 C7.67 6.66 7.34 7.32 7 8 C3.23558416 6.74519472 2.82680543 5.40450103 1 2 C0.67 1.34 0.34 0.68 0 0 Z " fill="#EAA18D" transform="translate(380,315)"/>
<path d="M0 0 C3.3 0 6.6 0 10 0 C10 0.33 10 0.66 10 1 C6.17679443 2.42258812 3.08718695 3.24042276 -1 3 C-0.67 2.01 -0.34 1.02 0 0 Z " fill="#F6DAD4" transform="translate(241,161)"/>
<path d="M0 0 C0.70125 0.144375 1.4025 0.28875 2.125 0.4375 C5.07556141 1.01478375 8.03270151 1.51695141 11 2 C11 2.66 11 3.32 11 4 C3.49230769 3.38461538 3.49230769 3.38461538 1 1.4375 C0.67 0.963125 0.34 0.48875 0 0 Z " fill="#E38A75" transform="translate(330,561)"/>
<path d="M0 0 C0.33 0.99 0.66 1.98 1 3 C-1.64 3 -4.28 3 -7 3 C-7 3.66 -7 4.32 -7 5 C-7.99 5 -8.98 5 -10 5 C-9.67 4.01 -9.34 3.02 -9 2 C-6.93359375 1.26953125 -6.93359375 1.26953125 -4.4375 0.8125 C-3.61121094 0.65394531 -2.78492188 0.49539063 -1.93359375 0.33203125 C-1.29550781 0.22246094 -0.65742187 0.11289062 0 0 Z " fill="#F8E3DE" transform="translate(525,531)"/>
<path d="M0 0 C3.96 0.33 7.92 0.66 12 1 C12 1.99 12 2.98 12 4 C6.06 3.01 6.06 3.01 0 2 C0 1.34 0 0.68 0 0 Z " fill="#F4D2CA" transform="translate(540,173)"/>
<path d="M0 0 C-3.03525486 2.02350324 -4.19426202 2.32124018 -7.6875 2.625 C-8.49574219 2.69976563 -9.30398438 2.77453125 -10.13671875 2.8515625 C-10.75160156 2.90054688 -11.36648438 2.94953125 -12 3 C-8.2391768 -0.7608232 -5.0273023 -0.25136512 0 0 Z " fill="#DD725A" transform="translate(458,550)"/>
<path d="M0 0 C2.64 0 5.28 0 8 0 C3.86621405 2.7558573 1.94796454 3.10756445 -3 3 C-2.01 2.67 -1.02 2.34 0 2 C0 1.34 0 0.68 0 0 Z " fill="#EDB4A7" transform="translate(295,146)"/>
<path d="M0 0 C4.81938524 -0.23509196 8.46298506 0.54815522 13 2 C13 2.33 13 2.66 13 3 C8.07872966 3.16682272 4.49656104 3.24828052 0 1 C0 0.67 0 0.34 0 0 Z " fill="#DE775F" transform="translate(346,566)"/>
<path d="M0 0 C4.46839215 -0.21278058 7.82262526 0.40861915 12 2 C12 2.33 12 2.66 12 3 C4.61538462 3.36923077 4.61538462 3.36923077 1.5 1.5 C1.005 1.005 0.51 0.51 0 0 Z " fill="#E48F7B" transform="translate(438,144)"/>
<path d="M0 0 C1.98 0.99 3.96 1.98 6 3 C5.67 4.32 5.34 5.64 5 7 C3.29115995 5.37660195 1.62553283 3.70680947 0 2 C0 1.34 0 0.68 0 0 Z " fill="#F2C4B7" transform="translate(387,415)"/>
<path d="M0 0 C4.875 4.625 4.875 4.625 6 8 C5.01 7.67 4.02 7.34 3 7 C3 6.34 3 5.68 3 5 C2.34 5 1.68 5 1 5 C0.67 3.35 0.34 1.7 0 0 Z " fill="#F8DCD4" transform="translate(328,257)"/>
<path d="M0 0 C2.97 0 5.94 0 9 0 C9 0.33 9 0.66 9 1 C2.71428571 3.42857143 2.71428571 3.42857143 -1 2 C-0.67 1.34 -0.34 0.68 0 0 Z " fill="#F7DCD6" transform="translate(268,153)"/>
<path d="M0 0 C2.64 0 5.28 0 8 0 C4.93882432 2.62386487 4.26826873 3 0 3 C0 2.01 0 1.02 0 0 Z " fill="#F4D1C9" transform="translate(329,135)"/>
</svg>
